<mxfile host="app.diagrams.net" agent="Mozilla/5.0 (Windows NT 10.0; Win64; x64) AppleWebKit/537.36 (KHTML, like Gecko) Chrome/137.0.0.0 Safari/537.36" version="27.1.6">
  <diagram name="Page-1" id="pv9kaPDVEbDFkuCNzxMm">
    <mxGraphModel dx="2590" dy="1265" grid="1" gridSize="10" guides="1" tooltips="1" connect="1" arrows="1" fold="1" page="1" pageScale="1" pageWidth="827" pageHeight="1169" math="0" shadow="0">
      <root>
        <mxCell id="0" />
        <mxCell id="1" parent="0" />
        <mxCell id="_XWpBwCBgqJrt7YI2MGK-1" value="Guest" style="shape=table;startSize=25;container=1;collapsible=0;childLayout=tableLayout;fixedRows=1;rowLines=1;fontStyle=1;align=center;resizeLast=1;fillColor=#dae8fc;strokeColor=#6c8ebf;" vertex="1" parent="1">
          <mxGeometry x="20" y="611" width="250" height="342" as="geometry" />
        </mxCell>
        <mxCell id="_XWpBwCBgqJrt7YI2MGK-2" style="shape=tableRow;horizontal=0;startSize=0;swimlaneHead=0;swimlaneBody=0;fillColor=none;collapsible=0;dropTarget=0;points=[[0,0.5],[1,0.5]];portConstraint=eastwest;top=0;left=0;right=0;bottom=0;" vertex="1" parent="_XWpBwCBgqJrt7YI2MGK-1">
          <mxGeometry y="25" width="250" height="45" as="geometry" />
        </mxCell>
        <mxCell id="_XWpBwCBgqJrt7YI2MGK-3" value="int" style="shape=partialRectangle;connectable=0;fillColor=none;top=0;left=0;bottom=0;right=0;align=left;spacingLeft=2;overflow=hidden;fontSize=11;" vertex="1" parent="_XWpBwCBgqJrt7YI2MGK-2">
          <mxGeometry width="36" height="45" as="geometry">
            <mxRectangle width="36" height="45" as="alternateBounds" />
          </mxGeometry>
        </mxCell>
        <mxCell id="_XWpBwCBgqJrt7YI2MGK-4" value="guestID" style="shape=partialRectangle;connectable=0;fillColor=none;top=0;left=0;bottom=0;right=0;align=left;spacingLeft=2;overflow=hidden;fontSize=11;" vertex="1" parent="_XWpBwCBgqJrt7YI2MGK-2">
          <mxGeometry x="36" width="192" height="45" as="geometry">
            <mxRectangle width="192" height="45" as="alternateBounds" />
          </mxGeometry>
        </mxCell>
        <mxCell id="_XWpBwCBgqJrt7YI2MGK-5" value="PK" style="shape=partialRectangle;connectable=0;fillColor=none;top=0;left=0;bottom=0;right=0;align=left;spacingLeft=2;overflow=hidden;fontSize=11;" vertex="1" parent="_XWpBwCBgqJrt7YI2MGK-2">
          <mxGeometry x="228" width="22" height="45" as="geometry">
            <mxRectangle width="22" height="45" as="alternateBounds" />
          </mxGeometry>
        </mxCell>
        <mxCell id="_XWpBwCBgqJrt7YI2MGK-6" style="shape=tableRow;horizontal=0;startSize=0;swimlaneHead=0;swimlaneBody=0;fillColor=none;collapsible=0;dropTarget=0;points=[[0,0.5],[1,0.5]];portConstraint=eastwest;top=0;left=0;right=0;bottom=0;" vertex="1" parent="_XWpBwCBgqJrt7YI2MGK-1">
          <mxGeometry y="70" width="250" height="45" as="geometry" />
        </mxCell>
        <mxCell id="_XWpBwCBgqJrt7YI2MGK-7" value="string" style="shape=partialRectangle;connectable=0;fillColor=none;top=0;left=0;bottom=0;right=0;align=left;spacingLeft=2;overflow=hidden;fontSize=11;" vertex="1" parent="_XWpBwCBgqJrt7YI2MGK-6">
          <mxGeometry width="36" height="45" as="geometry">
            <mxRectangle width="36" height="45" as="alternateBounds" />
          </mxGeometry>
        </mxCell>
        <mxCell id="_XWpBwCBgqJrt7YI2MGK-8" value="firstName" style="shape=partialRectangle;connectable=0;fillColor=none;top=0;left=0;bottom=0;right=0;align=left;spacingLeft=2;overflow=hidden;fontSize=11;" vertex="1" parent="_XWpBwCBgqJrt7YI2MGK-6">
          <mxGeometry x="36" width="192" height="45" as="geometry">
            <mxRectangle width="192" height="45" as="alternateBounds" />
          </mxGeometry>
        </mxCell>
        <mxCell id="_XWpBwCBgqJrt7YI2MGK-9" value="" style="shape=partialRectangle;connectable=0;fillColor=none;top=0;left=0;bottom=0;right=0;align=left;spacingLeft=2;overflow=hidden;fontSize=11;" vertex="1" parent="_XWpBwCBgqJrt7YI2MGK-6">
          <mxGeometry x="228" width="22" height="45" as="geometry">
            <mxRectangle width="22" height="45" as="alternateBounds" />
          </mxGeometry>
        </mxCell>
        <mxCell id="_XWpBwCBgqJrt7YI2MGK-10" style="shape=tableRow;horizontal=0;startSize=0;swimlaneHead=0;swimlaneBody=0;fillColor=none;collapsible=0;dropTarget=0;points=[[0,0.5],[1,0.5]];portConstraint=eastwest;top=0;left=0;right=0;bottom=0;" vertex="1" parent="_XWpBwCBgqJrt7YI2MGK-1">
          <mxGeometry y="115" width="250" height="45" as="geometry" />
        </mxCell>
        <mxCell id="_XWpBwCBgqJrt7YI2MGK-11" value="string" style="shape=partialRectangle;connectable=0;fillColor=none;top=0;left=0;bottom=0;right=0;align=left;spacingLeft=2;overflow=hidden;fontSize=11;" vertex="1" parent="_XWpBwCBgqJrt7YI2MGK-10">
          <mxGeometry width="36" height="45" as="geometry">
            <mxRectangle width="36" height="45" as="alternateBounds" />
          </mxGeometry>
        </mxCell>
        <mxCell id="_XWpBwCBgqJrt7YI2MGK-12" value="lastName" style="shape=partialRectangle;connectable=0;fillColor=none;top=0;left=0;bottom=0;right=0;align=left;spacingLeft=2;overflow=hidden;fontSize=11;" vertex="1" parent="_XWpBwCBgqJrt7YI2MGK-10">
          <mxGeometry x="36" width="192" height="45" as="geometry">
            <mxRectangle width="192" height="45" as="alternateBounds" />
          </mxGeometry>
        </mxCell>
        <mxCell id="_XWpBwCBgqJrt7YI2MGK-13" value="" style="shape=partialRectangle;connectable=0;fillColor=none;top=0;left=0;bottom=0;right=0;align=left;spacingLeft=2;overflow=hidden;fontSize=11;" vertex="1" parent="_XWpBwCBgqJrt7YI2MGK-10">
          <mxGeometry x="228" width="22" height="45" as="geometry">
            <mxRectangle width="22" height="45" as="alternateBounds" />
          </mxGeometry>
        </mxCell>
        <mxCell id="_XWpBwCBgqJrt7YI2MGK-14" style="shape=tableRow;horizontal=0;startSize=0;swimlaneHead=0;swimlaneBody=0;fillColor=none;collapsible=0;dropTarget=0;points=[[0,0.5],[1,0.5]];portConstraint=eastwest;top=0;left=0;right=0;bottom=0;" vertex="1" parent="_XWpBwCBgqJrt7YI2MGK-1">
          <mxGeometry y="160" width="250" height="45" as="geometry" />
        </mxCell>
        <mxCell id="_XWpBwCBgqJrt7YI2MGK-15" value="string" style="shape=partialRectangle;connectable=0;fillColor=none;top=0;left=0;bottom=0;right=0;align=left;spacingLeft=2;overflow=hidden;fontSize=11;" vertex="1" parent="_XWpBwCBgqJrt7YI2MGK-14">
          <mxGeometry width="36" height="45" as="geometry">
            <mxRectangle width="36" height="45" as="alternateBounds" />
          </mxGeometry>
        </mxCell>
        <mxCell id="_XWpBwCBgqJrt7YI2MGK-16" value="email" style="shape=partialRectangle;connectable=0;fillColor=none;top=0;left=0;bottom=0;right=0;align=left;spacingLeft=2;overflow=hidden;fontSize=11;" vertex="1" parent="_XWpBwCBgqJrt7YI2MGK-14">
          <mxGeometry x="36" width="192" height="45" as="geometry">
            <mxRectangle width="192" height="45" as="alternateBounds" />
          </mxGeometry>
        </mxCell>
        <mxCell id="_XWpBwCBgqJrt7YI2MGK-17" value="" style="shape=partialRectangle;connectable=0;fillColor=none;top=0;left=0;bottom=0;right=0;align=left;spacingLeft=2;overflow=hidden;fontSize=11;" vertex="1" parent="_XWpBwCBgqJrt7YI2MGK-14">
          <mxGeometry x="228" width="22" height="45" as="geometry">
            <mxRectangle width="22" height="45" as="alternateBounds" />
          </mxGeometry>
        </mxCell>
        <mxCell id="_XWpBwCBgqJrt7YI2MGK-18" style="shape=tableRow;horizontal=0;startSize=0;swimlaneHead=0;swimlaneBody=0;fillColor=none;collapsible=0;dropTarget=0;points=[[0,0.5],[1,0.5]];portConstraint=eastwest;top=0;left=0;right=0;bottom=0;" vertex="1" parent="_XWpBwCBgqJrt7YI2MGK-1">
          <mxGeometry y="205" width="250" height="45" as="geometry" />
        </mxCell>
        <mxCell id="_XWpBwCBgqJrt7YI2MGK-19" value="string" style="shape=partialRectangle;connectable=0;fillColor=none;top=0;left=0;bottom=0;right=0;align=left;spacingLeft=2;overflow=hidden;fontSize=11;" vertex="1" parent="_XWpBwCBgqJrt7YI2MGK-18">
          <mxGeometry width="36" height="45" as="geometry">
            <mxRectangle width="36" height="45" as="alternateBounds" />
          </mxGeometry>
        </mxCell>
        <mxCell id="_XWpBwCBgqJrt7YI2MGK-20" value="phone" style="shape=partialRectangle;connectable=0;fillColor=none;top=0;left=0;bottom=0;right=0;align=left;spacingLeft=2;overflow=hidden;fontSize=11;" vertex="1" parent="_XWpBwCBgqJrt7YI2MGK-18">
          <mxGeometry x="36" width="192" height="45" as="geometry">
            <mxRectangle width="192" height="45" as="alternateBounds" />
          </mxGeometry>
        </mxCell>
        <mxCell id="_XWpBwCBgqJrt7YI2MGK-21" value="" style="shape=partialRectangle;connectable=0;fillColor=none;top=0;left=0;bottom=0;right=0;align=left;spacingLeft=2;overflow=hidden;fontSize=11;" vertex="1" parent="_XWpBwCBgqJrt7YI2MGK-18">
          <mxGeometry x="228" width="22" height="45" as="geometry">
            <mxRectangle width="22" height="45" as="alternateBounds" />
          </mxGeometry>
        </mxCell>
        <mxCell id="_XWpBwCBgqJrt7YI2MGK-22" style="shape=tableRow;horizontal=0;startSize=0;swimlaneHead=0;swimlaneBody=0;fillColor=none;collapsible=0;dropTarget=0;points=[[0,0.5],[1,0.5]];portConstraint=eastwest;top=0;left=0;right=0;bottom=0;" vertex="1" parent="_XWpBwCBgqJrt7YI2MGK-1">
          <mxGeometry y="250" width="250" height="45" as="geometry" />
        </mxCell>
        <mxCell id="_XWpBwCBgqJrt7YI2MGK-23" value="string" style="shape=partialRectangle;connectable=0;fillColor=none;top=0;left=0;bottom=0;right=0;align=left;spacingLeft=2;overflow=hidden;fontSize=11;" vertex="1" parent="_XWpBwCBgqJrt7YI2MGK-22">
          <mxGeometry width="36" height="45" as="geometry">
            <mxRectangle width="36" height="45" as="alternateBounds" />
          </mxGeometry>
        </mxCell>
        <mxCell id="_XWpBwCBgqJrt7YI2MGK-24" value="address" style="shape=partialRectangle;connectable=0;fillColor=none;top=0;left=0;bottom=0;right=0;align=left;spacingLeft=2;overflow=hidden;fontSize=11;" vertex="1" parent="_XWpBwCBgqJrt7YI2MGK-22">
          <mxGeometry x="36" width="192" height="45" as="geometry">
            <mxRectangle width="192" height="45" as="alternateBounds" />
          </mxGeometry>
        </mxCell>
        <mxCell id="_XWpBwCBgqJrt7YI2MGK-25" value="" style="shape=partialRectangle;connectable=0;fillColor=none;top=0;left=0;bottom=0;right=0;align=left;spacingLeft=2;overflow=hidden;fontSize=11;" vertex="1" parent="_XWpBwCBgqJrt7YI2MGK-22">
          <mxGeometry x="228" width="22" height="45" as="geometry">
            <mxRectangle width="22" height="45" as="alternateBounds" />
          </mxGeometry>
        </mxCell>
        <mxCell id="_XWpBwCBgqJrt7YI2MGK-26" style="shape=tableRow;horizontal=0;startSize=0;swimlaneHead=0;swimlaneBody=0;fillColor=none;collapsible=0;dropTarget=0;points=[[0,0.5],[1,0.5]];portConstraint=eastwest;top=0;left=0;right=0;bottom=0;" vertex="1" parent="_XWpBwCBgqJrt7YI2MGK-1">
          <mxGeometry y="295" width="250" height="45" as="geometry" />
        </mxCell>
        <mxCell id="_XWpBwCBgqJrt7YI2MGK-27" value="date" style="shape=partialRectangle;connectable=0;fillColor=none;top=0;left=0;bottom=0;right=0;align=left;spacingLeft=2;overflow=hidden;fontSize=11;" vertex="1" parent="_XWpBwCBgqJrt7YI2MGK-26">
          <mxGeometry width="36" height="45" as="geometry">
            <mxRectangle width="36" height="45" as="alternateBounds" />
          </mxGeometry>
        </mxCell>
        <mxCell id="_XWpBwCBgqJrt7YI2MGK-28" value="registrationDate" style="shape=partialRectangle;connectable=0;fillColor=none;top=0;left=0;bottom=0;right=0;align=left;spacingLeft=2;overflow=hidden;fontSize=11;" vertex="1" parent="_XWpBwCBgqJrt7YI2MGK-26">
          <mxGeometry x="36" width="192" height="45" as="geometry">
            <mxRectangle width="192" height="45" as="alternateBounds" />
          </mxGeometry>
        </mxCell>
        <mxCell id="_XWpBwCBgqJrt7YI2MGK-29" value="" style="shape=partialRectangle;connectable=0;fillColor=none;top=0;left=0;bottom=0;right=0;align=left;spacingLeft=2;overflow=hidden;fontSize=11;" vertex="1" parent="_XWpBwCBgqJrt7YI2MGK-26">
          <mxGeometry x="228" width="22" height="45" as="geometry">
            <mxRectangle width="22" height="45" as="alternateBounds" />
          </mxGeometry>
        </mxCell>
        <mxCell id="_XWpBwCBgqJrt7YI2MGK-30" value="Booking" style="shape=table;startSize=25;container=1;collapsible=0;childLayout=tableLayout;fixedRows=1;rowLines=1;fontStyle=1;align=center;resizeLast=1;fillColor=#fff2cc;strokeColor=#d6b656;" vertex="1" parent="1">
          <mxGeometry x="389" y="1056" width="269" height="430" as="geometry" />
        </mxCell>
        <mxCell id="_XWpBwCBgqJrt7YI2MGK-31" style="shape=tableRow;horizontal=0;startSize=0;swimlaneHead=0;swimlaneBody=0;fillColor=none;collapsible=0;dropTarget=0;points=[[0,0.5],[1,0.5]];portConstraint=eastwest;top=0;left=0;right=0;bottom=0;" vertex="1" parent="_XWpBwCBgqJrt7YI2MGK-30">
          <mxGeometry y="25" width="269" height="45" as="geometry" />
        </mxCell>
        <mxCell id="_XWpBwCBgqJrt7YI2MGK-32" value="string" style="shape=partialRectangle;connectable=0;fillColor=none;top=0;left=0;bottom=0;right=0;align=left;spacingLeft=2;overflow=hidden;fontSize=11;" vertex="1" parent="_XWpBwCBgqJrt7YI2MGK-31">
          <mxGeometry width="42" height="45" as="geometry">
            <mxRectangle width="42" height="45" as="alternateBounds" />
          </mxGeometry>
        </mxCell>
        <mxCell id="_XWpBwCBgqJrt7YI2MGK-33" value="bookingCode" style="shape=partialRectangle;connectable=0;fillColor=none;top=0;left=0;bottom=0;right=0;align=left;spacingLeft=2;overflow=hidden;fontSize=11;" vertex="1" parent="_XWpBwCBgqJrt7YI2MGK-31">
          <mxGeometry x="42" width="205" height="45" as="geometry">
            <mxRectangle width="205" height="45" as="alternateBounds" />
          </mxGeometry>
        </mxCell>
        <mxCell id="_XWpBwCBgqJrt7YI2MGK-34" value="PK" style="shape=partialRectangle;connectable=0;fillColor=none;top=0;left=0;bottom=0;right=0;align=left;spacingLeft=2;overflow=hidden;fontSize=11;" vertex="1" parent="_XWpBwCBgqJrt7YI2MGK-31">
          <mxGeometry x="247" width="22" height="45" as="geometry">
            <mxRectangle width="22" height="45" as="alternateBounds" />
          </mxGeometry>
        </mxCell>
        <mxCell id="_XWpBwCBgqJrt7YI2MGK-35" style="shape=tableRow;horizontal=0;startSize=0;swimlaneHead=0;swimlaneBody=0;fillColor=none;collapsible=0;dropTarget=0;points=[[0,0.5],[1,0.5]];portConstraint=eastwest;top=0;left=0;right=0;bottom=0;" vertex="1" parent="_XWpBwCBgqJrt7YI2MGK-30">
          <mxGeometry y="70" width="269" height="45" as="geometry" />
        </mxCell>
        <mxCell id="_XWpBwCBgqJrt7YI2MGK-36" value="int" style="shape=partialRectangle;connectable=0;fillColor=none;top=0;left=0;bottom=0;right=0;align=left;spacingLeft=2;overflow=hidden;fontSize=11;" vertex="1" parent="_XWpBwCBgqJrt7YI2MGK-35">
          <mxGeometry width="42" height="45" as="geometry">
            <mxRectangle width="42" height="45" as="alternateBounds" />
          </mxGeometry>
        </mxCell>
        <mxCell id="_XWpBwCBgqJrt7YI2MGK-37" value="guestID" style="shape=partialRectangle;connectable=0;fillColor=none;top=0;left=0;bottom=0;right=0;align=left;spacingLeft=2;overflow=hidden;fontSize=11;" vertex="1" parent="_XWpBwCBgqJrt7YI2MGK-35">
          <mxGeometry x="42" width="205" height="45" as="geometry">
            <mxRectangle width="205" height="45" as="alternateBounds" />
          </mxGeometry>
        </mxCell>
        <mxCell id="_XWpBwCBgqJrt7YI2MGK-38" value="FK" style="shape=partialRectangle;connectable=0;fillColor=none;top=0;left=0;bottom=0;right=0;align=left;spacingLeft=2;overflow=hidden;fontSize=11;" vertex="1" parent="_XWpBwCBgqJrt7YI2MGK-35">
          <mxGeometry x="247" width="22" height="45" as="geometry">
            <mxRectangle width="22" height="45" as="alternateBounds" />
          </mxGeometry>
        </mxCell>
        <mxCell id="_XWpBwCBgqJrt7YI2MGK-39" style="shape=tableRow;horizontal=0;startSize=0;swimlaneHead=0;swimlaneBody=0;fillColor=none;collapsible=0;dropTarget=0;points=[[0,0.5],[1,0.5]];portConstraint=eastwest;top=0;left=0;right=0;bottom=0;" vertex="1" parent="_XWpBwCBgqJrt7YI2MGK-30">
          <mxGeometry y="115" width="269" height="45" as="geometry" />
        </mxCell>
        <mxCell id="_XWpBwCBgqJrt7YI2MGK-40" value="int" style="shape=partialRectangle;connectable=0;fillColor=none;top=0;left=0;bottom=0;right=0;align=left;spacingLeft=2;overflow=hidden;fontSize=11;" vertex="1" parent="_XWpBwCBgqJrt7YI2MGK-39">
          <mxGeometry width="42" height="45" as="geometry">
            <mxRectangle width="42" height="45" as="alternateBounds" />
          </mxGeometry>
        </mxCell>
        <mxCell id="_XWpBwCBgqJrt7YI2MGK-41" value="roomID" style="shape=partialRectangle;connectable=0;fillColor=none;top=0;left=0;bottom=0;right=0;align=left;spacingLeft=2;overflow=hidden;fontSize=11;" vertex="1" parent="_XWpBwCBgqJrt7YI2MGK-39">
          <mxGeometry x="42" width="205" height="45" as="geometry">
            <mxRectangle width="205" height="45" as="alternateBounds" />
          </mxGeometry>
        </mxCell>
        <mxCell id="_XWpBwCBgqJrt7YI2MGK-42" value="FK" style="shape=partialRectangle;connectable=0;fillColor=none;top=0;left=0;bottom=0;right=0;align=left;spacingLeft=2;overflow=hidden;fontSize=11;" vertex="1" parent="_XWpBwCBgqJrt7YI2MGK-39">
          <mxGeometry x="247" width="22" height="45" as="geometry">
            <mxRectangle width="22" height="45" as="alternateBounds" />
          </mxGeometry>
        </mxCell>
        <mxCell id="_XWpBwCBgqJrt7YI2MGK-43" style="shape=tableRow;horizontal=0;startSize=0;swimlaneHead=0;swimlaneBody=0;fillColor=none;collapsible=0;dropTarget=0;points=[[0,0.5],[1,0.5]];portConstraint=eastwest;top=0;left=0;right=0;bottom=0;" vertex="1" parent="_XWpBwCBgqJrt7YI2MGK-30">
          <mxGeometry y="160" width="269" height="45" as="geometry" />
        </mxCell>
        <mxCell id="_XWpBwCBgqJrt7YI2MGK-44" value="date" style="shape=partialRectangle;connectable=0;fillColor=none;top=0;left=0;bottom=0;right=0;align=left;spacingLeft=2;overflow=hidden;fontSize=11;" vertex="1" parent="_XWpBwCBgqJrt7YI2MGK-43">
          <mxGeometry width="42" height="45" as="geometry">
            <mxRectangle width="42" height="45" as="alternateBounds" />
          </mxGeometry>
        </mxCell>
        <mxCell id="_XWpBwCBgqJrt7YI2MGK-45" value="checkInDate" style="shape=partialRectangle;connectable=0;fillColor=none;top=0;left=0;bottom=0;right=0;align=left;spacingLeft=2;overflow=hidden;fontSize=11;" vertex="1" parent="_XWpBwCBgqJrt7YI2MGK-43">
          <mxGeometry x="42" width="205" height="45" as="geometry">
            <mxRectangle width="205" height="45" as="alternateBounds" />
          </mxGeometry>
        </mxCell>
        <mxCell id="_XWpBwCBgqJrt7YI2MGK-46" value="" style="shape=partialRectangle;connectable=0;fillColor=none;top=0;left=0;bottom=0;right=0;align=left;spacingLeft=2;overflow=hidden;fontSize=11;" vertex="1" parent="_XWpBwCBgqJrt7YI2MGK-43">
          <mxGeometry x="247" width="22" height="45" as="geometry">
            <mxRectangle width="22" height="45" as="alternateBounds" />
          </mxGeometry>
        </mxCell>
        <mxCell id="_XWpBwCBgqJrt7YI2MGK-47" style="shape=tableRow;horizontal=0;startSize=0;swimlaneHead=0;swimlaneBody=0;fillColor=none;collapsible=0;dropTarget=0;points=[[0,0.5],[1,0.5]];portConstraint=eastwest;top=0;left=0;right=0;bottom=0;" vertex="1" parent="_XWpBwCBgqJrt7YI2MGK-30">
          <mxGeometry y="205" width="269" height="45" as="geometry" />
        </mxCell>
        <mxCell id="_XWpBwCBgqJrt7YI2MGK-48" value="date" style="shape=partialRectangle;connectable=0;fillColor=none;top=0;left=0;bottom=0;right=0;align=left;spacingLeft=2;overflow=hidden;fontSize=11;" vertex="1" parent="_XWpBwCBgqJrt7YI2MGK-47">
          <mxGeometry width="42" height="45" as="geometry">
            <mxRectangle width="42" height="45" as="alternateBounds" />
          </mxGeometry>
        </mxCell>
        <mxCell id="_XWpBwCBgqJrt7YI2MGK-49" value="checkOutDate" style="shape=partialRectangle;connectable=0;fillColor=none;top=0;left=0;bottom=0;right=0;align=left;spacingLeft=2;overflow=hidden;fontSize=11;" vertex="1" parent="_XWpBwCBgqJrt7YI2MGK-47">
          <mxGeometry x="42" width="205" height="45" as="geometry">
            <mxRectangle width="205" height="45" as="alternateBounds" />
          </mxGeometry>
        </mxCell>
        <mxCell id="_XWpBwCBgqJrt7YI2MGK-50" value="" style="shape=partialRectangle;connectable=0;fillColor=none;top=0;left=0;bottom=0;right=0;align=left;spacingLeft=2;overflow=hidden;fontSize=11;" vertex="1" parent="_XWpBwCBgqJrt7YI2MGK-47">
          <mxGeometry x="247" width="22" height="45" as="geometry">
            <mxRectangle width="22" height="45" as="alternateBounds" />
          </mxGeometry>
        </mxCell>
        <mxCell id="_XWpBwCBgqJrt7YI2MGK-51" style="shape=tableRow;horizontal=0;startSize=0;swimlaneHead=0;swimlaneBody=0;fillColor=none;collapsible=0;dropTarget=0;points=[[0,0.5],[1,0.5]];portConstraint=eastwest;top=0;left=0;right=0;bottom=0;" vertex="1" parent="_XWpBwCBgqJrt7YI2MGK-30">
          <mxGeometry y="250" width="269" height="45" as="geometry" />
        </mxCell>
        <mxCell id="_XWpBwCBgqJrt7YI2MGK-52" value="int" style="shape=partialRectangle;connectable=0;fillColor=none;top=0;left=0;bottom=0;right=0;align=left;spacingLeft=2;overflow=hidden;fontSize=11;" vertex="1" parent="_XWpBwCBgqJrt7YI2MGK-51">
          <mxGeometry width="42" height="45" as="geometry">
            <mxRectangle width="42" height="45" as="alternateBounds" />
          </mxGeometry>
        </mxCell>
        <mxCell id="_XWpBwCBgqJrt7YI2MGK-53" value="numberOfGuests" style="shape=partialRectangle;connectable=0;fillColor=none;top=0;left=0;bottom=0;right=0;align=left;spacingLeft=2;overflow=hidden;fontSize=11;" vertex="1" parent="_XWpBwCBgqJrt7YI2MGK-51">
          <mxGeometry x="42" width="205" height="45" as="geometry">
            <mxRectangle width="205" height="45" as="alternateBounds" />
          </mxGeometry>
        </mxCell>
        <mxCell id="_XWpBwCBgqJrt7YI2MGK-54" value="" style="shape=partialRectangle;connectable=0;fillColor=none;top=0;left=0;bottom=0;right=0;align=left;spacingLeft=2;overflow=hidden;fontSize=11;" vertex="1" parent="_XWpBwCBgqJrt7YI2MGK-51">
          <mxGeometry x="247" width="22" height="45" as="geometry">
            <mxRectangle width="22" height="45" as="alternateBounds" />
          </mxGeometry>
        </mxCell>
        <mxCell id="_XWpBwCBgqJrt7YI2MGK-55" style="shape=tableRow;horizontal=0;startSize=0;swimlaneHead=0;swimlaneBody=0;fillColor=none;collapsible=0;dropTarget=0;points=[[0,0.5],[1,0.5]];portConstraint=eastwest;top=0;left=0;right=0;bottom=0;" vertex="1" parent="_XWpBwCBgqJrt7YI2MGK-30">
          <mxGeometry y="295" width="269" height="45" as="geometry" />
        </mxCell>
        <mxCell id="_XWpBwCBgqJrt7YI2MGK-56" value="decimal" style="shape=partialRectangle;connectable=0;fillColor=none;top=0;left=0;bottom=0;right=0;align=left;spacingLeft=2;overflow=hidden;fontSize=11;" vertex="1" parent="_XWpBwCBgqJrt7YI2MGK-55">
          <mxGeometry width="42" height="45" as="geometry">
            <mxRectangle width="42" height="45" as="alternateBounds" />
          </mxGeometry>
        </mxCell>
        <mxCell id="_XWpBwCBgqJrt7YI2MGK-57" value="totalAmount" style="shape=partialRectangle;connectable=0;fillColor=none;top=0;left=0;bottom=0;right=0;align=left;spacingLeft=2;overflow=hidden;fontSize=11;" vertex="1" parent="_XWpBwCBgqJrt7YI2MGK-55">
          <mxGeometry x="42" width="205" height="45" as="geometry">
            <mxRectangle width="205" height="45" as="alternateBounds" />
          </mxGeometry>
        </mxCell>
        <mxCell id="_XWpBwCBgqJrt7YI2MGK-58" value="" style="shape=partialRectangle;connectable=0;fillColor=none;top=0;left=0;bottom=0;right=0;align=left;spacingLeft=2;overflow=hidden;fontSize=11;" vertex="1" parent="_XWpBwCBgqJrt7YI2MGK-55">
          <mxGeometry x="247" width="22" height="45" as="geometry">
            <mxRectangle width="22" height="45" as="alternateBounds" />
          </mxGeometry>
        </mxCell>
        <mxCell id="_XWpBwCBgqJrt7YI2MGK-59" style="shape=tableRow;horizontal=0;startSize=0;swimlaneHead=0;swimlaneBody=0;fillColor=none;collapsible=0;dropTarget=0;points=[[0,0.5],[1,0.5]];portConstraint=eastwest;top=0;left=0;right=0;bottom=0;" vertex="1" parent="_XWpBwCBgqJrt7YI2MGK-30">
          <mxGeometry y="340" width="269" height="45" as="geometry" />
        </mxCell>
        <mxCell id="_XWpBwCBgqJrt7YI2MGK-60" value="string" style="shape=partialRectangle;connectable=0;fillColor=none;top=0;left=0;bottom=0;right=0;align=left;spacingLeft=2;overflow=hidden;fontSize=11;" vertex="1" parent="_XWpBwCBgqJrt7YI2MGK-59">
          <mxGeometry width="42" height="45" as="geometry">
            <mxRectangle width="42" height="45" as="alternateBounds" />
          </mxGeometry>
        </mxCell>
        <mxCell id="_XWpBwCBgqJrt7YI2MGK-61" value="status" style="shape=partialRectangle;connectable=0;fillColor=none;top=0;left=0;bottom=0;right=0;align=left;spacingLeft=2;overflow=hidden;fontSize=11;" vertex="1" parent="_XWpBwCBgqJrt7YI2MGK-59">
          <mxGeometry x="42" width="205" height="45" as="geometry">
            <mxRectangle width="205" height="45" as="alternateBounds" />
          </mxGeometry>
        </mxCell>
        <mxCell id="_XWpBwCBgqJrt7YI2MGK-62" value="" style="shape=partialRectangle;connectable=0;fillColor=none;top=0;left=0;bottom=0;right=0;align=left;spacingLeft=2;overflow=hidden;fontSize=11;" vertex="1" parent="_XWpBwCBgqJrt7YI2MGK-59">
          <mxGeometry x="247" width="22" height="45" as="geometry">
            <mxRectangle width="22" height="45" as="alternateBounds" />
          </mxGeometry>
        </mxCell>
        <mxCell id="_XWpBwCBgqJrt7YI2MGK-63" style="shape=tableRow;horizontal=0;startSize=0;swimlaneHead=0;swimlaneBody=0;fillColor=none;collapsible=0;dropTarget=0;points=[[0,0.5],[1,0.5]];portConstraint=eastwest;top=0;left=0;right=0;bottom=0;" vertex="1" parent="_XWpBwCBgqJrt7YI2MGK-30">
          <mxGeometry y="385" width="269" height="45" as="geometry" />
        </mxCell>
        <mxCell id="_XWpBwCBgqJrt7YI2MGK-64" value="date" style="shape=partialRectangle;connectable=0;fillColor=none;top=0;left=0;bottom=0;right=0;align=left;spacingLeft=2;overflow=hidden;fontSize=11;" vertex="1" parent="_XWpBwCBgqJrt7YI2MGK-63">
          <mxGeometry width="42" height="45" as="geometry">
            <mxRectangle width="42" height="45" as="alternateBounds" />
          </mxGeometry>
        </mxCell>
        <mxCell id="_XWpBwCBgqJrt7YI2MGK-65" value="bookingDate" style="shape=partialRectangle;connectable=0;fillColor=none;top=0;left=0;bottom=0;right=0;align=left;spacingLeft=2;overflow=hidden;fontSize=11;" vertex="1" parent="_XWpBwCBgqJrt7YI2MGK-63">
          <mxGeometry x="42" width="205" height="45" as="geometry">
            <mxRectangle width="205" height="45" as="alternateBounds" />
          </mxGeometry>
        </mxCell>
        <mxCell id="_XWpBwCBgqJrt7YI2MGK-66" value="" style="shape=partialRectangle;connectable=0;fillColor=none;top=0;left=0;bottom=0;right=0;align=left;spacingLeft=2;overflow=hidden;fontSize=11;" vertex="1" parent="_XWpBwCBgqJrt7YI2MGK-63">
          <mxGeometry x="247" width="22" height="45" as="geometry">
            <mxRectangle width="22" height="45" as="alternateBounds" />
          </mxGeometry>
        </mxCell>
        <mxCell id="_XWpBwCBgqJrt7YI2MGK-67" value="Room" style="shape=table;startSize=25;container=1;collapsible=0;childLayout=tableLayout;fixedRows=1;rowLines=1;fontStyle=1;align=center;resizeLast=1;fillColor=#d5e8d4;strokeColor=#82b366;" vertex="1" parent="1">
          <mxGeometry x="410" y="676" width="226" height="214" as="geometry" />
        </mxCell>
        <mxCell id="_XWpBwCBgqJrt7YI2MGK-68" style="shape=tableRow;horizontal=0;startSize=0;swimlaneHead=0;swimlaneBody=0;fillColor=none;collapsible=0;dropTarget=0;points=[[0,0.5],[1,0.5]];portConstraint=eastwest;top=0;left=0;right=0;bottom=0;" vertex="1" parent="_XWpBwCBgqJrt7YI2MGK-67">
          <mxGeometry y="25" width="226" height="47" as="geometry" />
        </mxCell>
        <mxCell id="_XWpBwCBgqJrt7YI2MGK-69" value="int" style="shape=partialRectangle;connectable=0;fillColor=none;top=0;left=0;bottom=0;right=0;align=left;spacingLeft=2;overflow=hidden;fontSize=11;" vertex="1" parent="_XWpBwCBgqJrt7YI2MGK-68">
          <mxGeometry width="36" height="47" as="geometry">
            <mxRectangle width="36" height="47" as="alternateBounds" />
          </mxGeometry>
        </mxCell>
        <mxCell id="_XWpBwCBgqJrt7YI2MGK-70" value="roomID" style="shape=partialRectangle;connectable=0;fillColor=none;top=0;left=0;bottom=0;right=0;align=left;spacingLeft=2;overflow=hidden;fontSize=11;" vertex="1" parent="_XWpBwCBgqJrt7YI2MGK-68">
          <mxGeometry x="36" width="168" height="47" as="geometry">
            <mxRectangle width="168" height="47" as="alternateBounds" />
          </mxGeometry>
        </mxCell>
        <mxCell id="_XWpBwCBgqJrt7YI2MGK-71" value="PK" style="shape=partialRectangle;connectable=0;fillColor=none;top=0;left=0;bottom=0;right=0;align=left;spacingLeft=2;overflow=hidden;fontSize=11;" vertex="1" parent="_XWpBwCBgqJrt7YI2MGK-68">
          <mxGeometry x="204" width="22" height="47" as="geometry">
            <mxRectangle width="22" height="47" as="alternateBounds" />
          </mxGeometry>
        </mxCell>
        <mxCell id="_XWpBwCBgqJrt7YI2MGK-72" style="shape=tableRow;horizontal=0;startSize=0;swimlaneHead=0;swimlaneBody=0;fillColor=none;collapsible=0;dropTarget=0;points=[[0,0.5],[1,0.5]];portConstraint=eastwest;top=0;left=0;right=0;bottom=0;" vertex="1" parent="_XWpBwCBgqJrt7YI2MGK-67">
          <mxGeometry y="72" width="226" height="47" as="geometry" />
        </mxCell>
        <mxCell id="_XWpBwCBgqJrt7YI2MGK-73" value="string" style="shape=partialRectangle;connectable=0;fillColor=none;top=0;left=0;bottom=0;right=0;align=left;spacingLeft=2;overflow=hidden;fontSize=11;" vertex="1" parent="_XWpBwCBgqJrt7YI2MGK-72">
          <mxGeometry width="36" height="47" as="geometry">
            <mxRectangle width="36" height="47" as="alternateBounds" />
          </mxGeometry>
        </mxCell>
        <mxCell id="_XWpBwCBgqJrt7YI2MGK-74" value="roomNumber" style="shape=partialRectangle;connectable=0;fillColor=none;top=0;left=0;bottom=0;right=0;align=left;spacingLeft=2;overflow=hidden;fontSize=11;" vertex="1" parent="_XWpBwCBgqJrt7YI2MGK-72">
          <mxGeometry x="36" width="168" height="47" as="geometry">
            <mxRectangle width="168" height="47" as="alternateBounds" />
          </mxGeometry>
        </mxCell>
        <mxCell id="_XWpBwCBgqJrt7YI2MGK-75" value="" style="shape=partialRectangle;connectable=0;fillColor=none;top=0;left=0;bottom=0;right=0;align=left;spacingLeft=2;overflow=hidden;fontSize=11;" vertex="1" parent="_XWpBwCBgqJrt7YI2MGK-72">
          <mxGeometry x="204" width="22" height="47" as="geometry">
            <mxRectangle width="22" height="47" as="alternateBounds" />
          </mxGeometry>
        </mxCell>
        <mxCell id="_XWpBwCBgqJrt7YI2MGK-76" style="shape=tableRow;horizontal=0;startSize=0;swimlaneHead=0;swimlaneBody=0;fillColor=none;collapsible=0;dropTarget=0;points=[[0,0.5],[1,0.5]];portConstraint=eastwest;top=0;left=0;right=0;bottom=0;" vertex="1" parent="_XWpBwCBgqJrt7YI2MGK-67">
          <mxGeometry y="119" width="226" height="47" as="geometry" />
        </mxCell>
        <mxCell id="_XWpBwCBgqJrt7YI2MGK-77" value="int" style="shape=partialRectangle;connectable=0;fillColor=none;top=0;left=0;bottom=0;right=0;align=left;spacingLeft=2;overflow=hidden;fontSize=11;" vertex="1" parent="_XWpBwCBgqJrt7YI2MGK-76">
          <mxGeometry width="36" height="47" as="geometry">
            <mxRectangle width="36" height="47" as="alternateBounds" />
          </mxGeometry>
        </mxCell>
        <mxCell id="_XWpBwCBgqJrt7YI2MGK-78" value="roomTypeID" style="shape=partialRectangle;connectable=0;fillColor=none;top=0;left=0;bottom=0;right=0;align=left;spacingLeft=2;overflow=hidden;fontSize=11;" vertex="1" parent="_XWpBwCBgqJrt7YI2MGK-76">
          <mxGeometry x="36" width="168" height="47" as="geometry">
            <mxRectangle width="168" height="47" as="alternateBounds" />
          </mxGeometry>
        </mxCell>
        <mxCell id="_XWpBwCBgqJrt7YI2MGK-79" value="FK" style="shape=partialRectangle;connectable=0;fillColor=none;top=0;left=0;bottom=0;right=0;align=left;spacingLeft=2;overflow=hidden;fontSize=11;" vertex="1" parent="_XWpBwCBgqJrt7YI2MGK-76">
          <mxGeometry x="204" width="22" height="47" as="geometry">
            <mxRectangle width="22" height="47" as="alternateBounds" />
          </mxGeometry>
        </mxCell>
        <mxCell id="_XWpBwCBgqJrt7YI2MGK-80" style="shape=tableRow;horizontal=0;startSize=0;swimlaneHead=0;swimlaneBody=0;fillColor=none;collapsible=0;dropTarget=0;points=[[0,0.5],[1,0.5]];portConstraint=eastwest;top=0;left=0;right=0;bottom=0;" vertex="1" parent="_XWpBwCBgqJrt7YI2MGK-67">
          <mxGeometry y="166" width="226" height="47" as="geometry" />
        </mxCell>
        <mxCell id="_XWpBwCBgqJrt7YI2MGK-81" value="string" style="shape=partialRectangle;connectable=0;fillColor=none;top=0;left=0;bottom=0;right=0;align=left;spacingLeft=2;overflow=hidden;fontSize=11;" vertex="1" parent="_XWpBwCBgqJrt7YI2MGK-80">
          <mxGeometry width="36" height="47" as="geometry">
            <mxRectangle width="36" height="47" as="alternateBounds" />
          </mxGeometry>
        </mxCell>
        <mxCell id="_XWpBwCBgqJrt7YI2MGK-82" value="status" style="shape=partialRectangle;connectable=0;fillColor=none;top=0;left=0;bottom=0;right=0;align=left;spacingLeft=2;overflow=hidden;fontSize=11;" vertex="1" parent="_XWpBwCBgqJrt7YI2MGK-80">
          <mxGeometry x="36" width="168" height="47" as="geometry">
            <mxRectangle width="168" height="47" as="alternateBounds" />
          </mxGeometry>
        </mxCell>
        <mxCell id="_XWpBwCBgqJrt7YI2MGK-83" value="" style="shape=partialRectangle;connectable=0;fillColor=none;top=0;left=0;bottom=0;right=0;align=left;spacingLeft=2;overflow=hidden;fontSize=11;" vertex="1" parent="_XWpBwCBgqJrt7YI2MGK-80">
          <mxGeometry x="204" width="22" height="47" as="geometry">
            <mxRectangle width="22" height="47" as="alternateBounds" />
          </mxGeometry>
        </mxCell>
        <mxCell id="_XWpBwCBgqJrt7YI2MGK-84" value="RoomType" style="shape=table;startSize=25;container=1;collapsible=0;childLayout=tableLayout;fixedRows=1;rowLines=1;fontStyle=1;align=center;resizeLast=1;fillColor=#e1d5e7;strokeColor=#9673a6;" vertex="1" parent="1">
          <mxGeometry x="400" y="210" width="247" height="301" as="geometry" />
        </mxCell>
        <mxCell id="_XWpBwCBgqJrt7YI2MGK-85" style="shape=tableRow;horizontal=0;startSize=0;swimlaneHead=0;swimlaneBody=0;fillColor=none;collapsible=0;dropTarget=0;points=[[0,0.5],[1,0.5]];portConstraint=eastwest;top=0;left=0;right=0;bottom=0;" vertex="1" parent="_XWpBwCBgqJrt7YI2MGK-84">
          <mxGeometry y="25" width="247" height="46" as="geometry" />
        </mxCell>
        <mxCell id="_XWpBwCBgqJrt7YI2MGK-86" value="int" style="shape=partialRectangle;connectable=0;fillColor=none;top=0;left=0;bottom=0;right=0;align=left;spacingLeft=2;overflow=hidden;fontSize=11;" vertex="1" parent="_XWpBwCBgqJrt7YI2MGK-85">
          <mxGeometry width="42" height="46" as="geometry">
            <mxRectangle width="42" height="46" as="alternateBounds" />
          </mxGeometry>
        </mxCell>
        <mxCell id="_XWpBwCBgqJrt7YI2MGK-87" value="roomTypeID" style="shape=partialRectangle;connectable=0;fillColor=none;top=0;left=0;bottom=0;right=0;align=left;spacingLeft=2;overflow=hidden;fontSize=11;" vertex="1" parent="_XWpBwCBgqJrt7YI2MGK-85">
          <mxGeometry x="42" width="183" height="46" as="geometry">
            <mxRectangle width="183" height="46" as="alternateBounds" />
          </mxGeometry>
        </mxCell>
        <mxCell id="_XWpBwCBgqJrt7YI2MGK-88" value="PK" style="shape=partialRectangle;connectable=0;fillColor=none;top=0;left=0;bottom=0;right=0;align=left;spacingLeft=2;overflow=hidden;fontSize=11;" vertex="1" parent="_XWpBwCBgqJrt7YI2MGK-85">
          <mxGeometry x="225" width="22" height="46" as="geometry">
            <mxRectangle width="22" height="46" as="alternateBounds" />
          </mxGeometry>
        </mxCell>
        <mxCell id="_XWpBwCBgqJrt7YI2MGK-89" style="shape=tableRow;horizontal=0;startSize=0;swimlaneHead=0;swimlaneBody=0;fillColor=none;collapsible=0;dropTarget=0;points=[[0,0.5],[1,0.5]];portConstraint=eastwest;top=0;left=0;right=0;bottom=0;" vertex="1" parent="_XWpBwCBgqJrt7YI2MGK-84">
          <mxGeometry y="71" width="247" height="46" as="geometry" />
        </mxCell>
        <mxCell id="_XWpBwCBgqJrt7YI2MGK-90" value="string" style="shape=partialRectangle;connectable=0;fillColor=none;top=0;left=0;bottom=0;right=0;align=left;spacingLeft=2;overflow=hidden;fontSize=11;" vertex="1" parent="_XWpBwCBgqJrt7YI2MGK-89">
          <mxGeometry width="42" height="46" as="geometry">
            <mxRectangle width="42" height="46" as="alternateBounds" />
          </mxGeometry>
        </mxCell>
        <mxCell id="_XWpBwCBgqJrt7YI2MGK-91" value="roomName" style="shape=partialRectangle;connectable=0;fillColor=none;top=0;left=0;bottom=0;right=0;align=left;spacingLeft=2;overflow=hidden;fontSize=11;" vertex="1" parent="_XWpBwCBgqJrt7YI2MGK-89">
          <mxGeometry x="42" width="183" height="46" as="geometry">
            <mxRectangle width="183" height="46" as="alternateBounds" />
          </mxGeometry>
        </mxCell>
        <mxCell id="_XWpBwCBgqJrt7YI2MGK-92" value="" style="shape=partialRectangle;connectable=0;fillColor=none;top=0;left=0;bottom=0;right=0;align=left;spacingLeft=2;overflow=hidden;fontSize=11;" vertex="1" parent="_XWpBwCBgqJrt7YI2MGK-89">
          <mxGeometry x="225" width="22" height="46" as="geometry">
            <mxRectangle width="22" height="46" as="alternateBounds" />
          </mxGeometry>
        </mxCell>
        <mxCell id="_XWpBwCBgqJrt7YI2MGK-93" style="shape=tableRow;horizontal=0;startSize=0;swimlaneHead=0;swimlaneBody=0;fillColor=none;collapsible=0;dropTarget=0;points=[[0,0.5],[1,0.5]];portConstraint=eastwest;top=0;left=0;right=0;bottom=0;" vertex="1" parent="_XWpBwCBgqJrt7YI2MGK-84">
          <mxGeometry y="117" width="247" height="46" as="geometry" />
        </mxCell>
        <mxCell id="_XWpBwCBgqJrt7YI2MGK-94" value="int" style="shape=partialRectangle;connectable=0;fillColor=none;top=0;left=0;bottom=0;right=0;align=left;spacingLeft=2;overflow=hidden;fontSize=11;" vertex="1" parent="_XWpBwCBgqJrt7YI2MGK-93">
          <mxGeometry width="42" height="46" as="geometry">
            <mxRectangle width="42" height="46" as="alternateBounds" />
          </mxGeometry>
        </mxCell>
        <mxCell id="_XWpBwCBgqJrt7YI2MGK-95" value="maxPeople" style="shape=partialRectangle;connectable=0;fillColor=none;top=0;left=0;bottom=0;right=0;align=left;spacingLeft=2;overflow=hidden;fontSize=11;" vertex="1" parent="_XWpBwCBgqJrt7YI2MGK-93">
          <mxGeometry x="42" width="183" height="46" as="geometry">
            <mxRectangle width="183" height="46" as="alternateBounds" />
          </mxGeometry>
        </mxCell>
        <mxCell id="_XWpBwCBgqJrt7YI2MGK-96" value="" style="shape=partialRectangle;connectable=0;fillColor=none;top=0;left=0;bottom=0;right=0;align=left;spacingLeft=2;overflow=hidden;fontSize=11;" vertex="1" parent="_XWpBwCBgqJrt7YI2MGK-93">
          <mxGeometry x="225" width="22" height="46" as="geometry">
            <mxRectangle width="22" height="46" as="alternateBounds" />
          </mxGeometry>
        </mxCell>
        <mxCell id="_XWpBwCBgqJrt7YI2MGK-97" style="shape=tableRow;horizontal=0;startSize=0;swimlaneHead=0;swimlaneBody=0;fillColor=none;collapsible=0;dropTarget=0;points=[[0,0.5],[1,0.5]];portConstraint=eastwest;top=0;left=0;right=0;bottom=0;" vertex="1" parent="_XWpBwCBgqJrt7YI2MGK-84">
          <mxGeometry y="163" width="247" height="46" as="geometry" />
        </mxCell>
        <mxCell id="_XWpBwCBgqJrt7YI2MGK-98" value="decimal" style="shape=partialRectangle;connectable=0;fillColor=none;top=0;left=0;bottom=0;right=0;align=left;spacingLeft=2;overflow=hidden;fontSize=11;" vertex="1" parent="_XWpBwCBgqJrt7YI2MGK-97">
          <mxGeometry width="42" height="46" as="geometry">
            <mxRectangle width="42" height="46" as="alternateBounds" />
          </mxGeometry>
        </mxCell>
        <mxCell id="_XWpBwCBgqJrt7YI2MGK-99" value="pricePerNight" style="shape=partialRectangle;connectable=0;fillColor=none;top=0;left=0;bottom=0;right=0;align=left;spacingLeft=2;overflow=hidden;fontSize=11;" vertex="1" parent="_XWpBwCBgqJrt7YI2MGK-97">
          <mxGeometry x="42" width="183" height="46" as="geometry">
            <mxRectangle width="183" height="46" as="alternateBounds" />
          </mxGeometry>
        </mxCell>
        <mxCell id="_XWpBwCBgqJrt7YI2MGK-100" value="" style="shape=partialRectangle;connectable=0;fillColor=none;top=0;left=0;bottom=0;right=0;align=left;spacingLeft=2;overflow=hidden;fontSize=11;" vertex="1" parent="_XWpBwCBgqJrt7YI2MGK-97">
          <mxGeometry x="225" width="22" height="46" as="geometry">
            <mxRectangle width="22" height="46" as="alternateBounds" />
          </mxGeometry>
        </mxCell>
        <mxCell id="_XWpBwCBgqJrt7YI2MGK-101" style="shape=tableRow;horizontal=0;startSize=0;swimlaneHead=0;swimlaneBody=0;fillColor=none;collapsible=0;dropTarget=0;points=[[0,0.5],[1,0.5]];portConstraint=eastwest;top=0;left=0;right=0;bottom=0;" vertex="1" parent="_XWpBwCBgqJrt7YI2MGK-84">
          <mxGeometry y="209" width="247" height="46" as="geometry" />
        </mxCell>
        <mxCell id="_XWpBwCBgqJrt7YI2MGK-102" value="string" style="shape=partialRectangle;connectable=0;fillColor=none;top=0;left=0;bottom=0;right=0;align=left;spacingLeft=2;overflow=hidden;fontSize=11;" vertex="1" parent="_XWpBwCBgqJrt7YI2MGK-101">
          <mxGeometry width="42" height="46" as="geometry">
            <mxRectangle width="42" height="46" as="alternateBounds" />
          </mxGeometry>
        </mxCell>
        <mxCell id="_XWpBwCBgqJrt7YI2MGK-103" value="description" style="shape=partialRectangle;connectable=0;fillColor=none;top=0;left=0;bottom=0;right=0;align=left;spacingLeft=2;overflow=hidden;fontSize=11;" vertex="1" parent="_XWpBwCBgqJrt7YI2MGK-101">
          <mxGeometry x="42" width="183" height="46" as="geometry">
            <mxRectangle width="183" height="46" as="alternateBounds" />
          </mxGeometry>
        </mxCell>
        <mxCell id="_XWpBwCBgqJrt7YI2MGK-104" value="" style="shape=partialRectangle;connectable=0;fillColor=none;top=0;left=0;bottom=0;right=0;align=left;spacingLeft=2;overflow=hidden;fontSize=11;" vertex="1" parent="_XWpBwCBgqJrt7YI2MGK-101">
          <mxGeometry x="225" width="22" height="46" as="geometry">
            <mxRectangle width="22" height="46" as="alternateBounds" />
          </mxGeometry>
        </mxCell>
        <mxCell id="_XWpBwCBgqJrt7YI2MGK-105" style="shape=tableRow;horizontal=0;startSize=0;swimlaneHead=0;swimlaneBody=0;fillColor=none;collapsible=0;dropTarget=0;points=[[0,0.5],[1,0.5]];portConstraint=eastwest;top=0;left=0;right=0;bottom=0;" vertex="1" parent="_XWpBwCBgqJrt7YI2MGK-84">
          <mxGeometry y="255" width="247" height="46" as="geometry" />
        </mxCell>
        <mxCell id="_XWpBwCBgqJrt7YI2MGK-106" value="string" style="shape=partialRectangle;connectable=0;fillColor=none;top=0;left=0;bottom=0;right=0;align=left;spacingLeft=2;overflow=hidden;fontSize=11;" vertex="1" parent="_XWpBwCBgqJrt7YI2MGK-105">
          <mxGeometry width="42" height="46" as="geometry">
            <mxRectangle width="42" height="46" as="alternateBounds" />
          </mxGeometry>
        </mxCell>
        <mxCell id="_XWpBwCBgqJrt7YI2MGK-107" value="amenities" style="shape=partialRectangle;connectable=0;fillColor=none;top=0;left=0;bottom=0;right=0;align=left;spacingLeft=2;overflow=hidden;fontSize=11;" vertex="1" parent="_XWpBwCBgqJrt7YI2MGK-105">
          <mxGeometry x="42" width="183" height="46" as="geometry">
            <mxRectangle width="183" height="46" as="alternateBounds" />
          </mxGeometry>
        </mxCell>
        <mxCell id="_XWpBwCBgqJrt7YI2MGK-108" value="" style="shape=partialRectangle;connectable=0;fillColor=none;top=0;left=0;bottom=0;right=0;align=left;spacingLeft=2;overflow=hidden;fontSize=11;" vertex="1" parent="_XWpBwCBgqJrt7YI2MGK-105">
          <mxGeometry x="225" width="22" height="46" as="geometry">
            <mxRectangle width="22" height="46" as="alternateBounds" />
          </mxGeometry>
        </mxCell>
        <mxCell id="_XWpBwCBgqJrt7YI2MGK-109" value="Payment" style="shape=table;startSize=25;container=1;collapsible=0;childLayout=tableLayout;fixedRows=1;rowLines=1;fontStyle=1;align=center;resizeLast=1;fillColor=#ffe6cc;strokeColor=#d79b00;" vertex="1" parent="1">
          <mxGeometry x="188" y="1585" width="265" height="342" as="geometry" />
        </mxCell>
        <mxCell id="_XWpBwCBgqJrt7YI2MGK-110" style="shape=tableRow;horizontal=0;startSize=0;swimlaneHead=0;swimlaneBody=0;fillColor=none;collapsible=0;dropTarget=0;points=[[0,0.5],[1,0.5]];portConstraint=eastwest;top=0;left=0;right=0;bottom=0;" vertex="1" parent="_XWpBwCBgqJrt7YI2MGK-109">
          <mxGeometry y="25" width="265" height="45" as="geometry" />
        </mxCell>
        <mxCell id="_XWpBwCBgqJrt7YI2MGK-111" value="int" style="shape=partialRectangle;connectable=0;fillColor=none;top=0;left=0;bottom=0;right=0;align=left;spacingLeft=2;overflow=hidden;fontSize=11;" vertex="1" parent="_XWpBwCBgqJrt7YI2MGK-110">
          <mxGeometry width="42" height="45" as="geometry">
            <mxRectangle width="42" height="45" as="alternateBounds" />
          </mxGeometry>
        </mxCell>
        <mxCell id="_XWpBwCBgqJrt7YI2MGK-112" value="paymentID" style="shape=partialRectangle;connectable=0;fillColor=none;top=0;left=0;bottom=0;right=0;align=left;spacingLeft=2;overflow=hidden;fontSize=11;" vertex="1" parent="_XWpBwCBgqJrt7YI2MGK-110">
          <mxGeometry x="42" width="201" height="45" as="geometry">
            <mxRectangle width="201" height="45" as="alternateBounds" />
          </mxGeometry>
        </mxCell>
        <mxCell id="_XWpBwCBgqJrt7YI2MGK-113" value="PK" style="shape=partialRectangle;connectable=0;fillColor=none;top=0;left=0;bottom=0;right=0;align=left;spacingLeft=2;overflow=hidden;fontSize=11;" vertex="1" parent="_XWpBwCBgqJrt7YI2MGK-110">
          <mxGeometry x="243" width="22" height="45" as="geometry">
            <mxRectangle width="22" height="45" as="alternateBounds" />
          </mxGeometry>
        </mxCell>
        <mxCell id="_XWpBwCBgqJrt7YI2MGK-114" style="shape=tableRow;horizontal=0;startSize=0;swimlaneHead=0;swimlaneBody=0;fillColor=none;collapsible=0;dropTarget=0;points=[[0,0.5],[1,0.5]];portConstraint=eastwest;top=0;left=0;right=0;bottom=0;" vertex="1" parent="_XWpBwCBgqJrt7YI2MGK-109">
          <mxGeometry y="70" width="265" height="45" as="geometry" />
        </mxCell>
        <mxCell id="_XWpBwCBgqJrt7YI2MGK-115" value="string" style="shape=partialRectangle;connectable=0;fillColor=none;top=0;left=0;bottom=0;right=0;align=left;spacingLeft=2;overflow=hidden;fontSize=11;" vertex="1" parent="_XWpBwCBgqJrt7YI2MGK-114">
          <mxGeometry width="42" height="45" as="geometry">
            <mxRectangle width="42" height="45" as="alternateBounds" />
          </mxGeometry>
        </mxCell>
        <mxCell id="_XWpBwCBgqJrt7YI2MGK-116" value="bookingCode" style="shape=partialRectangle;connectable=0;fillColor=none;top=0;left=0;bottom=0;right=0;align=left;spacingLeft=2;overflow=hidden;fontSize=11;" vertex="1" parent="_XWpBwCBgqJrt7YI2MGK-114">
          <mxGeometry x="42" width="201" height="45" as="geometry">
            <mxRectangle width="201" height="45" as="alternateBounds" />
          </mxGeometry>
        </mxCell>
        <mxCell id="_XWpBwCBgqJrt7YI2MGK-117" value="FK" style="shape=partialRectangle;connectable=0;fillColor=none;top=0;left=0;bottom=0;right=0;align=left;spacingLeft=2;overflow=hidden;fontSize=11;" vertex="1" parent="_XWpBwCBgqJrt7YI2MGK-114">
          <mxGeometry x="243" width="22" height="45" as="geometry">
            <mxRectangle width="22" height="45" as="alternateBounds" />
          </mxGeometry>
        </mxCell>
        <mxCell id="_XWpBwCBgqJrt7YI2MGK-118" style="shape=tableRow;horizontal=0;startSize=0;swimlaneHead=0;swimlaneBody=0;fillColor=none;collapsible=0;dropTarget=0;points=[[0,0.5],[1,0.5]];portConstraint=eastwest;top=0;left=0;right=0;bottom=0;" vertex="1" parent="_XWpBwCBgqJrt7YI2MGK-109">
          <mxGeometry y="115" width="265" height="45" as="geometry" />
        </mxCell>
        <mxCell id="_XWpBwCBgqJrt7YI2MGK-119" value="decimal" style="shape=partialRectangle;connectable=0;fillColor=none;top=0;left=0;bottom=0;right=0;align=left;spacingLeft=2;overflow=hidden;fontSize=11;" vertex="1" parent="_XWpBwCBgqJrt7YI2MGK-118">
          <mxGeometry width="42" height="45" as="geometry">
            <mxRectangle width="42" height="45" as="alternateBounds" />
          </mxGeometry>
        </mxCell>
        <mxCell id="_XWpBwCBgqJrt7YI2MGK-120" value="amount" style="shape=partialRectangle;connectable=0;fillColor=none;top=0;left=0;bottom=0;right=0;align=left;spacingLeft=2;overflow=hidden;fontSize=11;" vertex="1" parent="_XWpBwCBgqJrt7YI2MGK-118">
          <mxGeometry x="42" width="201" height="45" as="geometry">
            <mxRectangle width="201" height="45" as="alternateBounds" />
          </mxGeometry>
        </mxCell>
        <mxCell id="_XWpBwCBgqJrt7YI2MGK-121" value="" style="shape=partialRectangle;connectable=0;fillColor=none;top=0;left=0;bottom=0;right=0;align=left;spacingLeft=2;overflow=hidden;fontSize=11;" vertex="1" parent="_XWpBwCBgqJrt7YI2MGK-118">
          <mxGeometry x="243" width="22" height="45" as="geometry">
            <mxRectangle width="22" height="45" as="alternateBounds" />
          </mxGeometry>
        </mxCell>
        <mxCell id="_XWpBwCBgqJrt7YI2MGK-122" style="shape=tableRow;horizontal=0;startSize=0;swimlaneHead=0;swimlaneBody=0;fillColor=none;collapsible=0;dropTarget=0;points=[[0,0.5],[1,0.5]];portConstraint=eastwest;top=0;left=0;right=0;bottom=0;" vertex="1" parent="_XWpBwCBgqJrt7YI2MGK-109">
          <mxGeometry y="160" width="265" height="45" as="geometry" />
        </mxCell>
        <mxCell id="_XWpBwCBgqJrt7YI2MGK-123" value="date" style="shape=partialRectangle;connectable=0;fillColor=none;top=0;left=0;bottom=0;right=0;align=left;spacingLeft=2;overflow=hidden;fontSize=11;" vertex="1" parent="_XWpBwCBgqJrt7YI2MGK-122">
          <mxGeometry width="42" height="45" as="geometry">
            <mxRectangle width="42" height="45" as="alternateBounds" />
          </mxGeometry>
        </mxCell>
        <mxCell id="_XWpBwCBgqJrt7YI2MGK-124" value="paymentDate" style="shape=partialRectangle;connectable=0;fillColor=none;top=0;left=0;bottom=0;right=0;align=left;spacingLeft=2;overflow=hidden;fontSize=11;" vertex="1" parent="_XWpBwCBgqJrt7YI2MGK-122">
          <mxGeometry x="42" width="201" height="45" as="geometry">
            <mxRectangle width="201" height="45" as="alternateBounds" />
          </mxGeometry>
        </mxCell>
        <mxCell id="_XWpBwCBgqJrt7YI2MGK-125" value="" style="shape=partialRectangle;connectable=0;fillColor=none;top=0;left=0;bottom=0;right=0;align=left;spacingLeft=2;overflow=hidden;fontSize=11;" vertex="1" parent="_XWpBwCBgqJrt7YI2MGK-122">
          <mxGeometry x="243" width="22" height="45" as="geometry">
            <mxRectangle width="22" height="45" as="alternateBounds" />
          </mxGeometry>
        </mxCell>
        <mxCell id="_XWpBwCBgqJrt7YI2MGK-126" style="shape=tableRow;horizontal=0;startSize=0;swimlaneHead=0;swimlaneBody=0;fillColor=none;collapsible=0;dropTarget=0;points=[[0,0.5],[1,0.5]];portConstraint=eastwest;top=0;left=0;right=0;bottom=0;" vertex="1" parent="_XWpBwCBgqJrt7YI2MGK-109">
          <mxGeometry y="205" width="265" height="45" as="geometry" />
        </mxCell>
        <mxCell id="_XWpBwCBgqJrt7YI2MGK-127" value="string" style="shape=partialRectangle;connectable=0;fillColor=none;top=0;left=0;bottom=0;right=0;align=left;spacingLeft=2;overflow=hidden;fontSize=11;" vertex="1" parent="_XWpBwCBgqJrt7YI2MGK-126">
          <mxGeometry width="42" height="45" as="geometry">
            <mxRectangle width="42" height="45" as="alternateBounds" />
          </mxGeometry>
        </mxCell>
        <mxCell id="_XWpBwCBgqJrt7YI2MGK-128" value="paymentMethod" style="shape=partialRectangle;connectable=0;fillColor=none;top=0;left=0;bottom=0;right=0;align=left;spacingLeft=2;overflow=hidden;fontSize=11;" vertex="1" parent="_XWpBwCBgqJrt7YI2MGK-126">
          <mxGeometry x="42" width="201" height="45" as="geometry">
            <mxRectangle width="201" height="45" as="alternateBounds" />
          </mxGeometry>
        </mxCell>
        <mxCell id="_XWpBwCBgqJrt7YI2MGK-129" value="" style="shape=partialRectangle;connectable=0;fillColor=none;top=0;left=0;bottom=0;right=0;align=left;spacingLeft=2;overflow=hidden;fontSize=11;" vertex="1" parent="_XWpBwCBgqJrt7YI2MGK-126">
          <mxGeometry x="243" width="22" height="45" as="geometry">
            <mxRectangle width="22" height="45" as="alternateBounds" />
          </mxGeometry>
        </mxCell>
        <mxCell id="_XWpBwCBgqJrt7YI2MGK-130" style="shape=tableRow;horizontal=0;startSize=0;swimlaneHead=0;swimlaneBody=0;fillColor=none;collapsible=0;dropTarget=0;points=[[0,0.5],[1,0.5]];portConstraint=eastwest;top=0;left=0;right=0;bottom=0;" vertex="1" parent="_XWpBwCBgqJrt7YI2MGK-109">
          <mxGeometry y="250" width="265" height="45" as="geometry" />
        </mxCell>
        <mxCell id="_XWpBwCBgqJrt7YI2MGK-131" value="string" style="shape=partialRectangle;connectable=0;fillColor=none;top=0;left=0;bottom=0;right=0;align=left;spacingLeft=2;overflow=hidden;fontSize=11;" vertex="1" parent="_XWpBwCBgqJrt7YI2MGK-130">
          <mxGeometry width="42" height="45" as="geometry">
            <mxRectangle width="42" height="45" as="alternateBounds" />
          </mxGeometry>
        </mxCell>
        <mxCell id="_XWpBwCBgqJrt7YI2MGK-132" value="paymentStatus" style="shape=partialRectangle;connectable=0;fillColor=none;top=0;left=0;bottom=0;right=0;align=left;spacingLeft=2;overflow=hidden;fontSize=11;" vertex="1" parent="_XWpBwCBgqJrt7YI2MGK-130">
          <mxGeometry x="42" width="201" height="45" as="geometry">
            <mxRectangle width="201" height="45" as="alternateBounds" />
          </mxGeometry>
        </mxCell>
        <mxCell id="_XWpBwCBgqJrt7YI2MGK-133" value="" style="shape=partialRectangle;connectable=0;fillColor=none;top=0;left=0;bottom=0;right=0;align=left;spacingLeft=2;overflow=hidden;fontSize=11;" vertex="1" parent="_XWpBwCBgqJrt7YI2MGK-130">
          <mxGeometry x="243" width="22" height="45" as="geometry">
            <mxRectangle width="22" height="45" as="alternateBounds" />
          </mxGeometry>
        </mxCell>
        <mxCell id="_XWpBwCBgqJrt7YI2MGK-134" style="shape=tableRow;horizontal=0;startSize=0;swimlaneHead=0;swimlaneBody=0;fillColor=none;collapsible=0;dropTarget=0;points=[[0,0.5],[1,0.5]];portConstraint=eastwest;top=0;left=0;right=0;bottom=0;" vertex="1" parent="_XWpBwCBgqJrt7YI2MGK-109">
          <mxGeometry y="295" width="265" height="45" as="geometry" />
        </mxCell>
        <mxCell id="_XWpBwCBgqJrt7YI2MGK-135" value="string" style="shape=partialRectangle;connectable=0;fillColor=none;top=0;left=0;bottom=0;right=0;align=left;spacingLeft=2;overflow=hidden;fontSize=11;" vertex="1" parent="_XWpBwCBgqJrt7YI2MGK-134">
          <mxGeometry width="42" height="45" as="geometry">
            <mxRectangle width="42" height="45" as="alternateBounds" />
          </mxGeometry>
        </mxCell>
        <mxCell id="_XWpBwCBgqJrt7YI2MGK-136" value="transactionID" style="shape=partialRectangle;connectable=0;fillColor=none;top=0;left=0;bottom=0;right=0;align=left;spacingLeft=2;overflow=hidden;fontSize=11;" vertex="1" parent="_XWpBwCBgqJrt7YI2MGK-134">
          <mxGeometry x="42" width="201" height="45" as="geometry">
            <mxRectangle width="201" height="45" as="alternateBounds" />
          </mxGeometry>
        </mxCell>
        <mxCell id="_XWpBwCBgqJrt7YI2MGK-137" value="" style="shape=partialRectangle;connectable=0;fillColor=none;top=0;left=0;bottom=0;right=0;align=left;spacingLeft=2;overflow=hidden;fontSize=11;" vertex="1" parent="_XWpBwCBgqJrt7YI2MGK-134">
          <mxGeometry x="243" width="22" height="45" as="geometry">
            <mxRectangle width="22" height="45" as="alternateBounds" />
          </mxGeometry>
        </mxCell>
        <mxCell id="_XWpBwCBgqJrt7YI2MGK-138" value="Invoice" style="shape=table;startSize=25;container=1;collapsible=0;childLayout=tableLayout;fixedRows=1;rowLines=1;fontStyle=1;align=center;resizeLast=1;fillColor=#ffe6cc;strokeColor=#d79b00;" vertex="1" parent="1">
          <mxGeometry x="593" y="1607" width="250" height="301" as="geometry" />
        </mxCell>
        <mxCell id="_XWpBwCBgqJrt7YI2MGK-139" style="shape=tableRow;horizontal=0;startSize=0;swimlaneHead=0;swimlaneBody=0;fillColor=none;collapsible=0;dropTarget=0;points=[[0,0.5],[1,0.5]];portConstraint=eastwest;top=0;left=0;right=0;bottom=0;" vertex="1" parent="_XWpBwCBgqJrt7YI2MGK-138">
          <mxGeometry y="25" width="250" height="46" as="geometry" />
        </mxCell>
        <mxCell id="_XWpBwCBgqJrt7YI2MGK-140" value="int" style="shape=partialRectangle;connectable=0;fillColor=none;top=0;left=0;bottom=0;right=0;align=left;spacingLeft=2;overflow=hidden;fontSize=11;" vertex="1" parent="_XWpBwCBgqJrt7YI2MGK-139">
          <mxGeometry width="42" height="46" as="geometry">
            <mxRectangle width="42" height="46" as="alternateBounds" />
          </mxGeometry>
        </mxCell>
        <mxCell id="_XWpBwCBgqJrt7YI2MGK-141" value="invoiceID" style="shape=partialRectangle;connectable=0;fillColor=none;top=0;left=0;bottom=0;right=0;align=left;spacingLeft=2;overflow=hidden;fontSize=11;" vertex="1" parent="_XWpBwCBgqJrt7YI2MGK-139">
          <mxGeometry x="42" width="186" height="46" as="geometry">
            <mxRectangle width="186" height="46" as="alternateBounds" />
          </mxGeometry>
        </mxCell>
        <mxCell id="_XWpBwCBgqJrt7YI2MGK-142" value="PK" style="shape=partialRectangle;connectable=0;fillColor=none;top=0;left=0;bottom=0;right=0;align=left;spacingLeft=2;overflow=hidden;fontSize=11;" vertex="1" parent="_XWpBwCBgqJrt7YI2MGK-139">
          <mxGeometry x="228" width="22" height="46" as="geometry">
            <mxRectangle width="22" height="46" as="alternateBounds" />
          </mxGeometry>
        </mxCell>
        <mxCell id="_XWpBwCBgqJrt7YI2MGK-143" style="shape=tableRow;horizontal=0;startSize=0;swimlaneHead=0;swimlaneBody=0;fillColor=none;collapsible=0;dropTarget=0;points=[[0,0.5],[1,0.5]];portConstraint=eastwest;top=0;left=0;right=0;bottom=0;" vertex="1" parent="_XWpBwCBgqJrt7YI2MGK-138">
          <mxGeometry y="71" width="250" height="46" as="geometry" />
        </mxCell>
        <mxCell id="_XWpBwCBgqJrt7YI2MGK-144" value="string" style="shape=partialRectangle;connectable=0;fillColor=none;top=0;left=0;bottom=0;right=0;align=left;spacingLeft=2;overflow=hidden;fontSize=11;" vertex="1" parent="_XWpBwCBgqJrt7YI2MGK-143">
          <mxGeometry width="42" height="46" as="geometry">
            <mxRectangle width="42" height="46" as="alternateBounds" />
          </mxGeometry>
        </mxCell>
        <mxCell id="_XWpBwCBgqJrt7YI2MGK-145" value="bookingCode" style="shape=partialRectangle;connectable=0;fillColor=none;top=0;left=0;bottom=0;right=0;align=left;spacingLeft=2;overflow=hidden;fontSize=11;" vertex="1" parent="_XWpBwCBgqJrt7YI2MGK-143">
          <mxGeometry x="42" width="186" height="46" as="geometry">
            <mxRectangle width="186" height="46" as="alternateBounds" />
          </mxGeometry>
        </mxCell>
        <mxCell id="_XWpBwCBgqJrt7YI2MGK-146" value="FK" style="shape=partialRectangle;connectable=0;fillColor=none;top=0;left=0;bottom=0;right=0;align=left;spacingLeft=2;overflow=hidden;fontSize=11;" vertex="1" parent="_XWpBwCBgqJrt7YI2MGK-143">
          <mxGeometry x="228" width="22" height="46" as="geometry">
            <mxRectangle width="22" height="46" as="alternateBounds" />
          </mxGeometry>
        </mxCell>
        <mxCell id="_XWpBwCBgqJrt7YI2MGK-147" style="shape=tableRow;horizontal=0;startSize=0;swimlaneHead=0;swimlaneBody=0;fillColor=none;collapsible=0;dropTarget=0;points=[[0,0.5],[1,0.5]];portConstraint=eastwest;top=0;left=0;right=0;bottom=0;" vertex="1" parent="_XWpBwCBgqJrt7YI2MGK-138">
          <mxGeometry y="117" width="250" height="46" as="geometry" />
        </mxCell>
        <mxCell id="_XWpBwCBgqJrt7YI2MGK-148" value="decimal" style="shape=partialRectangle;connectable=0;fillColor=none;top=0;left=0;bottom=0;right=0;align=left;spacingLeft=2;overflow=hidden;fontSize=11;" vertex="1" parent="_XWpBwCBgqJrt7YI2MGK-147">
          <mxGeometry width="42" height="46" as="geometry">
            <mxRectangle width="42" height="46" as="alternateBounds" />
          </mxGeometry>
        </mxCell>
        <mxCell id="_XWpBwCBgqJrt7YI2MGK-149" value="totalAmount" style="shape=partialRectangle;connectable=0;fillColor=none;top=0;left=0;bottom=0;right=0;align=left;spacingLeft=2;overflow=hidden;fontSize=11;" vertex="1" parent="_XWpBwCBgqJrt7YI2MGK-147">
          <mxGeometry x="42" width="186" height="46" as="geometry">
            <mxRectangle width="186" height="46" as="alternateBounds" />
          </mxGeometry>
        </mxCell>
        <mxCell id="_XWpBwCBgqJrt7YI2MGK-150" value="" style="shape=partialRectangle;connectable=0;fillColor=none;top=0;left=0;bottom=0;right=0;align=left;spacingLeft=2;overflow=hidden;fontSize=11;" vertex="1" parent="_XWpBwCBgqJrt7YI2MGK-147">
          <mxGeometry x="228" width="22" height="46" as="geometry">
            <mxRectangle width="22" height="46" as="alternateBounds" />
          </mxGeometry>
        </mxCell>
        <mxCell id="_XWpBwCBgqJrt7YI2MGK-151" style="shape=tableRow;horizontal=0;startSize=0;swimlaneHead=0;swimlaneBody=0;fillColor=none;collapsible=0;dropTarget=0;points=[[0,0.5],[1,0.5]];portConstraint=eastwest;top=0;left=0;right=0;bottom=0;" vertex="1" parent="_XWpBwCBgqJrt7YI2MGK-138">
          <mxGeometry y="163" width="250" height="46" as="geometry" />
        </mxCell>
        <mxCell id="_XWpBwCBgqJrt7YI2MGK-152" value="date" style="shape=partialRectangle;connectable=0;fillColor=none;top=0;left=0;bottom=0;right=0;align=left;spacingLeft=2;overflow=hidden;fontSize=11;" vertex="1" parent="_XWpBwCBgqJrt7YI2MGK-151">
          <mxGeometry width="42" height="46" as="geometry">
            <mxRectangle width="42" height="46" as="alternateBounds" />
          </mxGeometry>
        </mxCell>
        <mxCell id="_XWpBwCBgqJrt7YI2MGK-153" value="issueDate" style="shape=partialRectangle;connectable=0;fillColor=none;top=0;left=0;bottom=0;right=0;align=left;spacingLeft=2;overflow=hidden;fontSize=11;" vertex="1" parent="_XWpBwCBgqJrt7YI2MGK-151">
          <mxGeometry x="42" width="186" height="46" as="geometry">
            <mxRectangle width="186" height="46" as="alternateBounds" />
          </mxGeometry>
        </mxCell>
        <mxCell id="_XWpBwCBgqJrt7YI2MGK-154" value="" style="shape=partialRectangle;connectable=0;fillColor=none;top=0;left=0;bottom=0;right=0;align=left;spacingLeft=2;overflow=hidden;fontSize=11;" vertex="1" parent="_XWpBwCBgqJrt7YI2MGK-151">
          <mxGeometry x="228" width="22" height="46" as="geometry">
            <mxRectangle width="22" height="46" as="alternateBounds" />
          </mxGeometry>
        </mxCell>
        <mxCell id="_XWpBwCBgqJrt7YI2MGK-155" style="shape=tableRow;horizontal=0;startSize=0;swimlaneHead=0;swimlaneBody=0;fillColor=none;collapsible=0;dropTarget=0;points=[[0,0.5],[1,0.5]];portConstraint=eastwest;top=0;left=0;right=0;bottom=0;" vertex="1" parent="_XWpBwCBgqJrt7YI2MGK-138">
          <mxGeometry y="209" width="250" height="46" as="geometry" />
        </mxCell>
        <mxCell id="_XWpBwCBgqJrt7YI2MGK-156" value="string" style="shape=partialRectangle;connectable=0;fillColor=none;top=0;left=0;bottom=0;right=0;align=left;spacingLeft=2;overflow=hidden;fontSize=11;" vertex="1" parent="_XWpBwCBgqJrt7YI2MGK-155">
          <mxGeometry width="42" height="46" as="geometry">
            <mxRectangle width="42" height="46" as="alternateBounds" />
          </mxGeometry>
        </mxCell>
        <mxCell id="_XWpBwCBgqJrt7YI2MGK-157" value="invoiceStatus" style="shape=partialRectangle;connectable=0;fillColor=none;top=0;left=0;bottom=0;right=0;align=left;spacingLeft=2;overflow=hidden;fontSize=11;" vertex="1" parent="_XWpBwCBgqJrt7YI2MGK-155">
          <mxGeometry x="42" width="186" height="46" as="geometry">
            <mxRectangle width="186" height="46" as="alternateBounds" />
          </mxGeometry>
        </mxCell>
        <mxCell id="_XWpBwCBgqJrt7YI2MGK-158" value="" style="shape=partialRectangle;connectable=0;fillColor=none;top=0;left=0;bottom=0;right=0;align=left;spacingLeft=2;overflow=hidden;fontSize=11;" vertex="1" parent="_XWpBwCBgqJrt7YI2MGK-155">
          <mxGeometry x="228" width="22" height="46" as="geometry">
            <mxRectangle width="22" height="46" as="alternateBounds" />
          </mxGeometry>
        </mxCell>
        <mxCell id="_XWpBwCBgqJrt7YI2MGK-159" style="shape=tableRow;horizontal=0;startSize=0;swimlaneHead=0;swimlaneBody=0;fillColor=none;collapsible=0;dropTarget=0;points=[[0,0.5],[1,0.5]];portConstraint=eastwest;top=0;left=0;right=0;bottom=0;" vertex="1" parent="_XWpBwCBgqJrt7YI2MGK-138">
          <mxGeometry y="255" width="250" height="46" as="geometry" />
        </mxCell>
        <mxCell id="_XWpBwCBgqJrt7YI2MGK-160" value="string" style="shape=partialRectangle;connectable=0;fillColor=none;top=0;left=0;bottom=0;right=0;align=left;spacingLeft=2;overflow=hidden;fontSize=11;" vertex="1" parent="_XWpBwCBgqJrt7YI2MGK-159">
          <mxGeometry width="42" height="46" as="geometry">
            <mxRectangle width="42" height="46" as="alternateBounds" />
          </mxGeometry>
        </mxCell>
        <mxCell id="_XWpBwCBgqJrt7YI2MGK-161" value="invoiceDetails" style="shape=partialRectangle;connectable=0;fillColor=none;top=0;left=0;bottom=0;right=0;align=left;spacingLeft=2;overflow=hidden;fontSize=11;" vertex="1" parent="_XWpBwCBgqJrt7YI2MGK-159">
          <mxGeometry x="42" width="186" height="46" as="geometry">
            <mxRectangle width="186" height="46" as="alternateBounds" />
          </mxGeometry>
        </mxCell>
        <mxCell id="_XWpBwCBgqJrt7YI2MGK-162" value="" style="shape=partialRectangle;connectable=0;fillColor=none;top=0;left=0;bottom=0;right=0;align=left;spacingLeft=2;overflow=hidden;fontSize=11;" vertex="1" parent="_XWpBwCBgqJrt7YI2MGK-159">
          <mxGeometry x="228" width="22" height="46" as="geometry">
            <mxRectangle width="22" height="46" as="alternateBounds" />
          </mxGeometry>
        </mxCell>
        <mxCell id="_XWpBwCBgqJrt7YI2MGK-163" value="Receptionist" style="shape=table;startSize=25;container=1;collapsible=0;childLayout=tableLayout;fixedRows=1;rowLines=1;fontStyle=1;align=center;resizeLast=1;fillColor=#d5e8d4;strokeColor=#82b366;" vertex="1" parent="1">
          <mxGeometry x="776" y="654" width="234" height="257" as="geometry" />
        </mxCell>
        <mxCell id="_XWpBwCBgqJrt7YI2MGK-164" style="shape=tableRow;horizontal=0;startSize=0;swimlaneHead=0;swimlaneBody=0;fillColor=none;collapsible=0;dropTarget=0;points=[[0,0.5],[1,0.5]];portConstraint=eastwest;top=0;left=0;right=0;bottom=0;" vertex="1" parent="_XWpBwCBgqJrt7YI2MGK-163">
          <mxGeometry y="25" width="234" height="46" as="geometry" />
        </mxCell>
        <mxCell id="_XWpBwCBgqJrt7YI2MGK-165" value="int" style="shape=partialRectangle;connectable=0;fillColor=none;top=0;left=0;bottom=0;right=0;align=left;spacingLeft=2;overflow=hidden;fontSize=11;" vertex="1" parent="_XWpBwCBgqJrt7YI2MGK-164">
          <mxGeometry width="36" height="46" as="geometry">
            <mxRectangle width="36" height="46" as="alternateBounds" />
          </mxGeometry>
        </mxCell>
        <mxCell id="_XWpBwCBgqJrt7YI2MGK-166" value="receptionistID" style="shape=partialRectangle;connectable=0;fillColor=none;top=0;left=0;bottom=0;right=0;align=left;spacingLeft=2;overflow=hidden;fontSize=11;" vertex="1" parent="_XWpBwCBgqJrt7YI2MGK-164">
          <mxGeometry x="36" width="176" height="46" as="geometry">
            <mxRectangle width="176" height="46" as="alternateBounds" />
          </mxGeometry>
        </mxCell>
        <mxCell id="_XWpBwCBgqJrt7YI2MGK-167" value="PK" style="shape=partialRectangle;connectable=0;fillColor=none;top=0;left=0;bottom=0;right=0;align=left;spacingLeft=2;overflow=hidden;fontSize=11;" vertex="1" parent="_XWpBwCBgqJrt7YI2MGK-164">
          <mxGeometry x="212" width="22" height="46" as="geometry">
            <mxRectangle width="22" height="46" as="alternateBounds" />
          </mxGeometry>
        </mxCell>
        <mxCell id="_XWpBwCBgqJrt7YI2MGK-168" style="shape=tableRow;horizontal=0;startSize=0;swimlaneHead=0;swimlaneBody=0;fillColor=none;collapsible=0;dropTarget=0;points=[[0,0.5],[1,0.5]];portConstraint=eastwest;top=0;left=0;right=0;bottom=0;" vertex="1" parent="_XWpBwCBgqJrt7YI2MGK-163">
          <mxGeometry y="71" width="234" height="46" as="geometry" />
        </mxCell>
        <mxCell id="_XWpBwCBgqJrt7YI2MGK-169" value="string" style="shape=partialRectangle;connectable=0;fillColor=none;top=0;left=0;bottom=0;right=0;align=left;spacingLeft=2;overflow=hidden;fontSize=11;" vertex="1" parent="_XWpBwCBgqJrt7YI2MGK-168">
          <mxGeometry width="36" height="46" as="geometry">
            <mxRectangle width="36" height="46" as="alternateBounds" />
          </mxGeometry>
        </mxCell>
        <mxCell id="_XWpBwCBgqJrt7YI2MGK-170" value="firstName" style="shape=partialRectangle;connectable=0;fillColor=none;top=0;left=0;bottom=0;right=0;align=left;spacingLeft=2;overflow=hidden;fontSize=11;" vertex="1" parent="_XWpBwCBgqJrt7YI2MGK-168">
          <mxGeometry x="36" width="176" height="46" as="geometry">
            <mxRectangle width="176" height="46" as="alternateBounds" />
          </mxGeometry>
        </mxCell>
        <mxCell id="_XWpBwCBgqJrt7YI2MGK-171" value="" style="shape=partialRectangle;connectable=0;fillColor=none;top=0;left=0;bottom=0;right=0;align=left;spacingLeft=2;overflow=hidden;fontSize=11;" vertex="1" parent="_XWpBwCBgqJrt7YI2MGK-168">
          <mxGeometry x="212" width="22" height="46" as="geometry">
            <mxRectangle width="22" height="46" as="alternateBounds" />
          </mxGeometry>
        </mxCell>
        <mxCell id="_XWpBwCBgqJrt7YI2MGK-172" style="shape=tableRow;horizontal=0;startSize=0;swimlaneHead=0;swimlaneBody=0;fillColor=none;collapsible=0;dropTarget=0;points=[[0,0.5],[1,0.5]];portConstraint=eastwest;top=0;left=0;right=0;bottom=0;" vertex="1" parent="_XWpBwCBgqJrt7YI2MGK-163">
          <mxGeometry y="117" width="234" height="46" as="geometry" />
        </mxCell>
        <mxCell id="_XWpBwCBgqJrt7YI2MGK-173" value="string" style="shape=partialRectangle;connectable=0;fillColor=none;top=0;left=0;bottom=0;right=0;align=left;spacingLeft=2;overflow=hidden;fontSize=11;" vertex="1" parent="_XWpBwCBgqJrt7YI2MGK-172">
          <mxGeometry width="36" height="46" as="geometry">
            <mxRectangle width="36" height="46" as="alternateBounds" />
          </mxGeometry>
        </mxCell>
        <mxCell id="_XWpBwCBgqJrt7YI2MGK-174" value="lastName" style="shape=partialRectangle;connectable=0;fillColor=none;top=0;left=0;bottom=0;right=0;align=left;spacingLeft=2;overflow=hidden;fontSize=11;" vertex="1" parent="_XWpBwCBgqJrt7YI2MGK-172">
          <mxGeometry x="36" width="176" height="46" as="geometry">
            <mxRectangle width="176" height="46" as="alternateBounds" />
          </mxGeometry>
        </mxCell>
        <mxCell id="_XWpBwCBgqJrt7YI2MGK-175" value="" style="shape=partialRectangle;connectable=0;fillColor=none;top=0;left=0;bottom=0;right=0;align=left;spacingLeft=2;overflow=hidden;fontSize=11;" vertex="1" parent="_XWpBwCBgqJrt7YI2MGK-172">
          <mxGeometry x="212" width="22" height="46" as="geometry">
            <mxRectangle width="22" height="46" as="alternateBounds" />
          </mxGeometry>
        </mxCell>
        <mxCell id="_XWpBwCBgqJrt7YI2MGK-176" style="shape=tableRow;horizontal=0;startSize=0;swimlaneHead=0;swimlaneBody=0;fillColor=none;collapsible=0;dropTarget=0;points=[[0,0.5],[1,0.5]];portConstraint=eastwest;top=0;left=0;right=0;bottom=0;" vertex="1" parent="_XWpBwCBgqJrt7YI2MGK-163">
          <mxGeometry y="163" width="234" height="46" as="geometry" />
        </mxCell>
        <mxCell id="_XWpBwCBgqJrt7YI2MGK-177" value="string" style="shape=partialRectangle;connectable=0;fillColor=none;top=0;left=0;bottom=0;right=0;align=left;spacingLeft=2;overflow=hidden;fontSize=11;" vertex="1" parent="_XWpBwCBgqJrt7YI2MGK-176">
          <mxGeometry width="36" height="46" as="geometry">
            <mxRectangle width="36" height="46" as="alternateBounds" />
          </mxGeometry>
        </mxCell>
        <mxCell id="_XWpBwCBgqJrt7YI2MGK-178" value="employeeID" style="shape=partialRectangle;connectable=0;fillColor=none;top=0;left=0;bottom=0;right=0;align=left;spacingLeft=2;overflow=hidden;fontSize=11;" vertex="1" parent="_XWpBwCBgqJrt7YI2MGK-176">
          <mxGeometry x="36" width="176" height="46" as="geometry">
            <mxRectangle width="176" height="46" as="alternateBounds" />
          </mxGeometry>
        </mxCell>
        <mxCell id="_XWpBwCBgqJrt7YI2MGK-179" value="" style="shape=partialRectangle;connectable=0;fillColor=none;top=0;left=0;bottom=0;right=0;align=left;spacingLeft=2;overflow=hidden;fontSize=11;" vertex="1" parent="_XWpBwCBgqJrt7YI2MGK-176">
          <mxGeometry x="212" width="22" height="46" as="geometry">
            <mxRectangle width="22" height="46" as="alternateBounds" />
          </mxGeometry>
        </mxCell>
        <mxCell id="_XWpBwCBgqJrt7YI2MGK-180" style="shape=tableRow;horizontal=0;startSize=0;swimlaneHead=0;swimlaneBody=0;fillColor=none;collapsible=0;dropTarget=0;points=[[0,0.5],[1,0.5]];portConstraint=eastwest;top=0;left=0;right=0;bottom=0;" vertex="1" parent="_XWpBwCBgqJrt7YI2MGK-163">
          <mxGeometry y="209" width="234" height="46" as="geometry" />
        </mxCell>
        <mxCell id="_XWpBwCBgqJrt7YI2MGK-181" value="string" style="shape=partialRectangle;connectable=0;fillColor=none;top=0;left=0;bottom=0;right=0;align=left;spacingLeft=2;overflow=hidden;fontSize=11;" vertex="1" parent="_XWpBwCBgqJrt7YI2MGK-180">
          <mxGeometry width="36" height="46" as="geometry">
            <mxRectangle width="36" height="46" as="alternateBounds" />
          </mxGeometry>
        </mxCell>
        <mxCell id="_XWpBwCBgqJrt7YI2MGK-182" value="email" style="shape=partialRectangle;connectable=0;fillColor=none;top=0;left=0;bottom=0;right=0;align=left;spacingLeft=2;overflow=hidden;fontSize=11;" vertex="1" parent="_XWpBwCBgqJrt7YI2MGK-180">
          <mxGeometry x="36" width="176" height="46" as="geometry">
            <mxRectangle width="176" height="46" as="alternateBounds" />
          </mxGeometry>
        </mxCell>
        <mxCell id="_XWpBwCBgqJrt7YI2MGK-183" value="" style="shape=partialRectangle;connectable=0;fillColor=none;top=0;left=0;bottom=0;right=0;align=left;spacingLeft=2;overflow=hidden;fontSize=11;" vertex="1" parent="_XWpBwCBgqJrt7YI2MGK-180">
          <mxGeometry x="212" width="22" height="46" as="geometry">
            <mxRectangle width="22" height="46" as="alternateBounds" />
          </mxGeometry>
        </mxCell>
        <mxCell id="_XWpBwCBgqJrt7YI2MGK-184" value="HotelManager" style="shape=table;startSize=25;container=1;collapsible=0;childLayout=tableLayout;fixedRows=1;rowLines=1;fontStyle=1;align=center;resizeLast=1;fillColor=#f8cecc;strokeColor=#b85450;" vertex="1" parent="1">
          <mxGeometry x="1169" y="210" width="218" height="301" as="geometry" />
        </mxCell>
        <mxCell id="_XWpBwCBgqJrt7YI2MGK-185" style="shape=tableRow;horizontal=0;startSize=0;swimlaneHead=0;swimlaneBody=0;fillColor=none;collapsible=0;dropTarget=0;points=[[0,0.5],[1,0.5]];portConstraint=eastwest;top=0;left=0;right=0;bottom=0;" vertex="1" parent="_XWpBwCBgqJrt7YI2MGK-184">
          <mxGeometry y="25" width="218" height="46" as="geometry" />
        </mxCell>
        <mxCell id="_XWpBwCBgqJrt7YI2MGK-186" value="int" style="shape=partialRectangle;connectable=0;fillColor=none;top=0;left=0;bottom=0;right=0;align=left;spacingLeft=2;overflow=hidden;fontSize=11;" vertex="1" parent="_XWpBwCBgqJrt7YI2MGK-185">
          <mxGeometry width="36" height="46" as="geometry">
            <mxRectangle width="36" height="46" as="alternateBounds" />
          </mxGeometry>
        </mxCell>
        <mxCell id="_XWpBwCBgqJrt7YI2MGK-187" value="managerID" style="shape=partialRectangle;connectable=0;fillColor=none;top=0;left=0;bottom=0;right=0;align=left;spacingLeft=2;overflow=hidden;fontSize=11;" vertex="1" parent="_XWpBwCBgqJrt7YI2MGK-185">
          <mxGeometry x="36" width="160" height="46" as="geometry">
            <mxRectangle width="160" height="46" as="alternateBounds" />
          </mxGeometry>
        </mxCell>
        <mxCell id="_XWpBwCBgqJrt7YI2MGK-188" value="PK" style="shape=partialRectangle;connectable=0;fillColor=none;top=0;left=0;bottom=0;right=0;align=left;spacingLeft=2;overflow=hidden;fontSize=11;" vertex="1" parent="_XWpBwCBgqJrt7YI2MGK-185">
          <mxGeometry x="196" width="22" height="46" as="geometry">
            <mxRectangle width="22" height="46" as="alternateBounds" />
          </mxGeometry>
        </mxCell>
        <mxCell id="_XWpBwCBgqJrt7YI2MGK-189" style="shape=tableRow;horizontal=0;startSize=0;swimlaneHead=0;swimlaneBody=0;fillColor=none;collapsible=0;dropTarget=0;points=[[0,0.5],[1,0.5]];portConstraint=eastwest;top=0;left=0;right=0;bottom=0;" vertex="1" parent="_XWpBwCBgqJrt7YI2MGK-184">
          <mxGeometry y="71" width="218" height="46" as="geometry" />
        </mxCell>
        <mxCell id="_XWpBwCBgqJrt7YI2MGK-190" value="string" style="shape=partialRectangle;connectable=0;fillColor=none;top=0;left=0;bottom=0;right=0;align=left;spacingLeft=2;overflow=hidden;fontSize=11;" vertex="1" parent="_XWpBwCBgqJrt7YI2MGK-189">
          <mxGeometry width="36" height="46" as="geometry">
            <mxRectangle width="36" height="46" as="alternateBounds" />
          </mxGeometry>
        </mxCell>
        <mxCell id="_XWpBwCBgqJrt7YI2MGK-191" value="firstName" style="shape=partialRectangle;connectable=0;fillColor=none;top=0;left=0;bottom=0;right=0;align=left;spacingLeft=2;overflow=hidden;fontSize=11;" vertex="1" parent="_XWpBwCBgqJrt7YI2MGK-189">
          <mxGeometry x="36" width="160" height="46" as="geometry">
            <mxRectangle width="160" height="46" as="alternateBounds" />
          </mxGeometry>
        </mxCell>
        <mxCell id="_XWpBwCBgqJrt7YI2MGK-192" value="" style="shape=partialRectangle;connectable=0;fillColor=none;top=0;left=0;bottom=0;right=0;align=left;spacingLeft=2;overflow=hidden;fontSize=11;" vertex="1" parent="_XWpBwCBgqJrt7YI2MGK-189">
          <mxGeometry x="196" width="22" height="46" as="geometry">
            <mxRectangle width="22" height="46" as="alternateBounds" />
          </mxGeometry>
        </mxCell>
        <mxCell id="_XWpBwCBgqJrt7YI2MGK-193" style="shape=tableRow;horizontal=0;startSize=0;swimlaneHead=0;swimlaneBody=0;fillColor=none;collapsible=0;dropTarget=0;points=[[0,0.5],[1,0.5]];portConstraint=eastwest;top=0;left=0;right=0;bottom=0;" vertex="1" parent="_XWpBwCBgqJrt7YI2MGK-184">
          <mxGeometry y="117" width="218" height="46" as="geometry" />
        </mxCell>
        <mxCell id="_XWpBwCBgqJrt7YI2MGK-194" value="string" style="shape=partialRectangle;connectable=0;fillColor=none;top=0;left=0;bottom=0;right=0;align=left;spacingLeft=2;overflow=hidden;fontSize=11;" vertex="1" parent="_XWpBwCBgqJrt7YI2MGK-193">
          <mxGeometry width="36" height="46" as="geometry">
            <mxRectangle width="36" height="46" as="alternateBounds" />
          </mxGeometry>
        </mxCell>
        <mxCell id="_XWpBwCBgqJrt7YI2MGK-195" value="lastName" style="shape=partialRectangle;connectable=0;fillColor=none;top=0;left=0;bottom=0;right=0;align=left;spacingLeft=2;overflow=hidden;fontSize=11;" vertex="1" parent="_XWpBwCBgqJrt7YI2MGK-193">
          <mxGeometry x="36" width="160" height="46" as="geometry">
            <mxRectangle width="160" height="46" as="alternateBounds" />
          </mxGeometry>
        </mxCell>
        <mxCell id="_XWpBwCBgqJrt7YI2MGK-196" value="" style="shape=partialRectangle;connectable=0;fillColor=none;top=0;left=0;bottom=0;right=0;align=left;spacingLeft=2;overflow=hidden;fontSize=11;" vertex="1" parent="_XWpBwCBgqJrt7YI2MGK-193">
          <mxGeometry x="196" width="22" height="46" as="geometry">
            <mxRectangle width="22" height="46" as="alternateBounds" />
          </mxGeometry>
        </mxCell>
        <mxCell id="_XWpBwCBgqJrt7YI2MGK-197" style="shape=tableRow;horizontal=0;startSize=0;swimlaneHead=0;swimlaneBody=0;fillColor=none;collapsible=0;dropTarget=0;points=[[0,0.5],[1,0.5]];portConstraint=eastwest;top=0;left=0;right=0;bottom=0;" vertex="1" parent="_XWpBwCBgqJrt7YI2MGK-184">
          <mxGeometry y="163" width="218" height="46" as="geometry" />
        </mxCell>
        <mxCell id="_XWpBwCBgqJrt7YI2MGK-198" value="string" style="shape=partialRectangle;connectable=0;fillColor=none;top=0;left=0;bottom=0;right=0;align=left;spacingLeft=2;overflow=hidden;fontSize=11;" vertex="1" parent="_XWpBwCBgqJrt7YI2MGK-197">
          <mxGeometry width="36" height="46" as="geometry">
            <mxRectangle width="36" height="46" as="alternateBounds" />
          </mxGeometry>
        </mxCell>
        <mxCell id="_XWpBwCBgqJrt7YI2MGK-199" value="employeeID" style="shape=partialRectangle;connectable=0;fillColor=none;top=0;left=0;bottom=0;right=0;align=left;spacingLeft=2;overflow=hidden;fontSize=11;" vertex="1" parent="_XWpBwCBgqJrt7YI2MGK-197">
          <mxGeometry x="36" width="160" height="46" as="geometry">
            <mxRectangle width="160" height="46" as="alternateBounds" />
          </mxGeometry>
        </mxCell>
        <mxCell id="_XWpBwCBgqJrt7YI2MGK-200" value="" style="shape=partialRectangle;connectable=0;fillColor=none;top=0;left=0;bottom=0;right=0;align=left;spacingLeft=2;overflow=hidden;fontSize=11;" vertex="1" parent="_XWpBwCBgqJrt7YI2MGK-197">
          <mxGeometry x="196" width="22" height="46" as="geometry">
            <mxRectangle width="22" height="46" as="alternateBounds" />
          </mxGeometry>
        </mxCell>
        <mxCell id="_XWpBwCBgqJrt7YI2MGK-201" style="shape=tableRow;horizontal=0;startSize=0;swimlaneHead=0;swimlaneBody=0;fillColor=none;collapsible=0;dropTarget=0;points=[[0,0.5],[1,0.5]];portConstraint=eastwest;top=0;left=0;right=0;bottom=0;" vertex="1" parent="_XWpBwCBgqJrt7YI2MGK-184">
          <mxGeometry y="209" width="218" height="46" as="geometry" />
        </mxCell>
        <mxCell id="_XWpBwCBgqJrt7YI2MGK-202" value="string" style="shape=partialRectangle;connectable=0;fillColor=none;top=0;left=0;bottom=0;right=0;align=left;spacingLeft=2;overflow=hidden;fontSize=11;" vertex="1" parent="_XWpBwCBgqJrt7YI2MGK-201">
          <mxGeometry width="36" height="46" as="geometry">
            <mxRectangle width="36" height="46" as="alternateBounds" />
          </mxGeometry>
        </mxCell>
        <mxCell id="_XWpBwCBgqJrt7YI2MGK-203" value="email" style="shape=partialRectangle;connectable=0;fillColor=none;top=0;left=0;bottom=0;right=0;align=left;spacingLeft=2;overflow=hidden;fontSize=11;" vertex="1" parent="_XWpBwCBgqJrt7YI2MGK-201">
          <mxGeometry x="36" width="160" height="46" as="geometry">
            <mxRectangle width="160" height="46" as="alternateBounds" />
          </mxGeometry>
        </mxCell>
        <mxCell id="_XWpBwCBgqJrt7YI2MGK-204" value="" style="shape=partialRectangle;connectable=0;fillColor=none;top=0;left=0;bottom=0;right=0;align=left;spacingLeft=2;overflow=hidden;fontSize=11;" vertex="1" parent="_XWpBwCBgqJrt7YI2MGK-201">
          <mxGeometry x="196" width="22" height="46" as="geometry">
            <mxRectangle width="22" height="46" as="alternateBounds" />
          </mxGeometry>
        </mxCell>
        <mxCell id="_XWpBwCBgqJrt7YI2MGK-205" style="shape=tableRow;horizontal=0;startSize=0;swimlaneHead=0;swimlaneBody=0;fillColor=none;collapsible=0;dropTarget=0;points=[[0,0.5],[1,0.5]];portConstraint=eastwest;top=0;left=0;right=0;bottom=0;" vertex="1" parent="_XWpBwCBgqJrt7YI2MGK-184">
          <mxGeometry y="255" width="218" height="46" as="geometry" />
        </mxCell>
        <mxCell id="_XWpBwCBgqJrt7YI2MGK-206" value="string" style="shape=partialRectangle;connectable=0;fillColor=none;top=0;left=0;bottom=0;right=0;align=left;spacingLeft=2;overflow=hidden;fontSize=11;" vertex="1" parent="_XWpBwCBgqJrt7YI2MGK-205">
          <mxGeometry width="36" height="46" as="geometry">
            <mxRectangle width="36" height="46" as="alternateBounds" />
          </mxGeometry>
        </mxCell>
        <mxCell id="_XWpBwCBgqJrt7YI2MGK-207" value="department" style="shape=partialRectangle;connectable=0;fillColor=none;top=0;left=0;bottom=0;right=0;align=left;spacingLeft=2;overflow=hidden;fontSize=11;" vertex="1" parent="_XWpBwCBgqJrt7YI2MGK-205">
          <mxGeometry x="36" width="160" height="46" as="geometry">
            <mxRectangle width="160" height="46" as="alternateBounds" />
          </mxGeometry>
        </mxCell>
        <mxCell id="_XWpBwCBgqJrt7YI2MGK-208" value="" style="shape=partialRectangle;connectable=0;fillColor=none;top=0;left=0;bottom=0;right=0;align=left;spacingLeft=2;overflow=hidden;fontSize=11;" vertex="1" parent="_XWpBwCBgqJrt7YI2MGK-205">
          <mxGeometry x="196" width="22" height="46" as="geometry">
            <mxRectangle width="22" height="46" as="alternateBounds" />
          </mxGeometry>
        </mxCell>
        <mxCell id="_XWpBwCBgqJrt7YI2MGK-209" value="MonthlyReport" style="shape=table;startSize=25;container=1;collapsible=0;childLayout=tableLayout;fixedRows=1;rowLines=1;fontStyle=1;align=center;resizeLast=1;fillColor=#f8cecc;strokeColor=#b85450;" vertex="1" parent="1">
          <mxGeometry x="1150" y="611" width="256" height="342" as="geometry" />
        </mxCell>
        <mxCell id="_XWpBwCBgqJrt7YI2MGK-210" style="shape=tableRow;horizontal=0;startSize=0;swimlaneHead=0;swimlaneBody=0;fillColor=none;collapsible=0;dropTarget=0;points=[[0,0.5],[1,0.5]];portConstraint=eastwest;top=0;left=0;right=0;bottom=0;" vertex="1" parent="_XWpBwCBgqJrt7YI2MGK-209">
          <mxGeometry y="25" width="256" height="45" as="geometry" />
        </mxCell>
        <mxCell id="_XWpBwCBgqJrt7YI2MGK-211" value="int" style="shape=partialRectangle;connectable=0;fillColor=none;top=0;left=0;bottom=0;right=0;align=left;spacingLeft=2;overflow=hidden;fontSize=11;" vertex="1" parent="_XWpBwCBgqJrt7YI2MGK-210">
          <mxGeometry width="42" height="45" as="geometry">
            <mxRectangle width="42" height="45" as="alternateBounds" />
          </mxGeometry>
        </mxCell>
        <mxCell id="_XWpBwCBgqJrt7YI2MGK-212" value="reportID" style="shape=partialRectangle;connectable=0;fillColor=none;top=0;left=0;bottom=0;right=0;align=left;spacingLeft=2;overflow=hidden;fontSize=11;" vertex="1" parent="_XWpBwCBgqJrt7YI2MGK-210">
          <mxGeometry x="42" width="192" height="45" as="geometry">
            <mxRectangle width="192" height="45" as="alternateBounds" />
          </mxGeometry>
        </mxCell>
        <mxCell id="_XWpBwCBgqJrt7YI2MGK-213" value="PK" style="shape=partialRectangle;connectable=0;fillColor=none;top=0;left=0;bottom=0;right=0;align=left;spacingLeft=2;overflow=hidden;fontSize=11;" vertex="1" parent="_XWpBwCBgqJrt7YI2MGK-210">
          <mxGeometry x="234" width="22" height="45" as="geometry">
            <mxRectangle width="22" height="45" as="alternateBounds" />
          </mxGeometry>
        </mxCell>
        <mxCell id="_XWpBwCBgqJrt7YI2MGK-214" style="shape=tableRow;horizontal=0;startSize=0;swimlaneHead=0;swimlaneBody=0;fillColor=none;collapsible=0;dropTarget=0;points=[[0,0.5],[1,0.5]];portConstraint=eastwest;top=0;left=0;right=0;bottom=0;" vertex="1" parent="_XWpBwCBgqJrt7YI2MGK-209">
          <mxGeometry y="70" width="256" height="45" as="geometry" />
        </mxCell>
        <mxCell id="_XWpBwCBgqJrt7YI2MGK-215" value="int" style="shape=partialRectangle;connectable=0;fillColor=none;top=0;left=0;bottom=0;right=0;align=left;spacingLeft=2;overflow=hidden;fontSize=11;" vertex="1" parent="_XWpBwCBgqJrt7YI2MGK-214">
          <mxGeometry width="42" height="45" as="geometry">
            <mxRectangle width="42" height="45" as="alternateBounds" />
          </mxGeometry>
        </mxCell>
        <mxCell id="_XWpBwCBgqJrt7YI2MGK-216" value="managerID" style="shape=partialRectangle;connectable=0;fillColor=none;top=0;left=0;bottom=0;right=0;align=left;spacingLeft=2;overflow=hidden;fontSize=11;" vertex="1" parent="_XWpBwCBgqJrt7YI2MGK-214">
          <mxGeometry x="42" width="192" height="45" as="geometry">
            <mxRectangle width="192" height="45" as="alternateBounds" />
          </mxGeometry>
        </mxCell>
        <mxCell id="_XWpBwCBgqJrt7YI2MGK-217" value="FK" style="shape=partialRectangle;connectable=0;fillColor=none;top=0;left=0;bottom=0;right=0;align=left;spacingLeft=2;overflow=hidden;fontSize=11;" vertex="1" parent="_XWpBwCBgqJrt7YI2MGK-214">
          <mxGeometry x="234" width="22" height="45" as="geometry">
            <mxRectangle width="22" height="45" as="alternateBounds" />
          </mxGeometry>
        </mxCell>
        <mxCell id="_XWpBwCBgqJrt7YI2MGK-218" style="shape=tableRow;horizontal=0;startSize=0;swimlaneHead=0;swimlaneBody=0;fillColor=none;collapsible=0;dropTarget=0;points=[[0,0.5],[1,0.5]];portConstraint=eastwest;top=0;left=0;right=0;bottom=0;" vertex="1" parent="_XWpBwCBgqJrt7YI2MGK-209">
          <mxGeometry y="115" width="256" height="45" as="geometry" />
        </mxCell>
        <mxCell id="_XWpBwCBgqJrt7YI2MGK-219" value="date" style="shape=partialRectangle;connectable=0;fillColor=none;top=0;left=0;bottom=0;right=0;align=left;spacingLeft=2;overflow=hidden;fontSize=11;" vertex="1" parent="_XWpBwCBgqJrt7YI2MGK-218">
          <mxGeometry width="42" height="45" as="geometry">
            <mxRectangle width="42" height="45" as="alternateBounds" />
          </mxGeometry>
        </mxCell>
        <mxCell id="_XWpBwCBgqJrt7YI2MGK-220" value="reportMonth" style="shape=partialRectangle;connectable=0;fillColor=none;top=0;left=0;bottom=0;right=0;align=left;spacingLeft=2;overflow=hidden;fontSize=11;" vertex="1" parent="_XWpBwCBgqJrt7YI2MGK-218">
          <mxGeometry x="42" width="192" height="45" as="geometry">
            <mxRectangle width="192" height="45" as="alternateBounds" />
          </mxGeometry>
        </mxCell>
        <mxCell id="_XWpBwCBgqJrt7YI2MGK-221" value="" style="shape=partialRectangle;connectable=0;fillColor=none;top=0;left=0;bottom=0;right=0;align=left;spacingLeft=2;overflow=hidden;fontSize=11;" vertex="1" parent="_XWpBwCBgqJrt7YI2MGK-218">
          <mxGeometry x="234" width="22" height="45" as="geometry">
            <mxRectangle width="22" height="45" as="alternateBounds" />
          </mxGeometry>
        </mxCell>
        <mxCell id="_XWpBwCBgqJrt7YI2MGK-222" style="shape=tableRow;horizontal=0;startSize=0;swimlaneHead=0;swimlaneBody=0;fillColor=none;collapsible=0;dropTarget=0;points=[[0,0.5],[1,0.5]];portConstraint=eastwest;top=0;left=0;right=0;bottom=0;" vertex="1" parent="_XWpBwCBgqJrt7YI2MGK-209">
          <mxGeometry y="160" width="256" height="45" as="geometry" />
        </mxCell>
        <mxCell id="_XWpBwCBgqJrt7YI2MGK-223" value="int" style="shape=partialRectangle;connectable=0;fillColor=none;top=0;left=0;bottom=0;right=0;align=left;spacingLeft=2;overflow=hidden;fontSize=11;" vertex="1" parent="_XWpBwCBgqJrt7YI2MGK-222">
          <mxGeometry width="42" height="45" as="geometry">
            <mxRectangle width="42" height="45" as="alternateBounds" />
          </mxGeometry>
        </mxCell>
        <mxCell id="_XWpBwCBgqJrt7YI2MGK-224" value="totalBookings" style="shape=partialRectangle;connectable=0;fillColor=none;top=0;left=0;bottom=0;right=0;align=left;spacingLeft=2;overflow=hidden;fontSize=11;" vertex="1" parent="_XWpBwCBgqJrt7YI2MGK-222">
          <mxGeometry x="42" width="192" height="45" as="geometry">
            <mxRectangle width="192" height="45" as="alternateBounds" />
          </mxGeometry>
        </mxCell>
        <mxCell id="_XWpBwCBgqJrt7YI2MGK-225" value="" style="shape=partialRectangle;connectable=0;fillColor=none;top=0;left=0;bottom=0;right=0;align=left;spacingLeft=2;overflow=hidden;fontSize=11;" vertex="1" parent="_XWpBwCBgqJrt7YI2MGK-222">
          <mxGeometry x="234" width="22" height="45" as="geometry">
            <mxRectangle width="22" height="45" as="alternateBounds" />
          </mxGeometry>
        </mxCell>
        <mxCell id="_XWpBwCBgqJrt7YI2MGK-226" style="shape=tableRow;horizontal=0;startSize=0;swimlaneHead=0;swimlaneBody=0;fillColor=none;collapsible=0;dropTarget=0;points=[[0,0.5],[1,0.5]];portConstraint=eastwest;top=0;left=0;right=0;bottom=0;" vertex="1" parent="_XWpBwCBgqJrt7YI2MGK-209">
          <mxGeometry y="205" width="256" height="45" as="geometry" />
        </mxCell>
        <mxCell id="_XWpBwCBgqJrt7YI2MGK-227" value="decimal" style="shape=partialRectangle;connectable=0;fillColor=none;top=0;left=0;bottom=0;right=0;align=left;spacingLeft=2;overflow=hidden;fontSize=11;" vertex="1" parent="_XWpBwCBgqJrt7YI2MGK-226">
          <mxGeometry width="42" height="45" as="geometry">
            <mxRectangle width="42" height="45" as="alternateBounds" />
          </mxGeometry>
        </mxCell>
        <mxCell id="_XWpBwCBgqJrt7YI2MGK-228" value="totalRevenue" style="shape=partialRectangle;connectable=0;fillColor=none;top=0;left=0;bottom=0;right=0;align=left;spacingLeft=2;overflow=hidden;fontSize=11;" vertex="1" parent="_XWpBwCBgqJrt7YI2MGK-226">
          <mxGeometry x="42" width="192" height="45" as="geometry">
            <mxRectangle width="192" height="45" as="alternateBounds" />
          </mxGeometry>
        </mxCell>
        <mxCell id="_XWpBwCBgqJrt7YI2MGK-229" value="" style="shape=partialRectangle;connectable=0;fillColor=none;top=0;left=0;bottom=0;right=0;align=left;spacingLeft=2;overflow=hidden;fontSize=11;" vertex="1" parent="_XWpBwCBgqJrt7YI2MGK-226">
          <mxGeometry x="234" width="22" height="45" as="geometry">
            <mxRectangle width="22" height="45" as="alternateBounds" />
          </mxGeometry>
        </mxCell>
        <mxCell id="_XWpBwCBgqJrt7YI2MGK-230" style="shape=tableRow;horizontal=0;startSize=0;swimlaneHead=0;swimlaneBody=0;fillColor=none;collapsible=0;dropTarget=0;points=[[0,0.5],[1,0.5]];portConstraint=eastwest;top=0;left=0;right=0;bottom=0;" vertex="1" parent="_XWpBwCBgqJrt7YI2MGK-209">
          <mxGeometry y="250" width="256" height="45" as="geometry" />
        </mxCell>
        <mxCell id="_XWpBwCBgqJrt7YI2MGK-231" value="date" style="shape=partialRectangle;connectable=0;fillColor=none;top=0;left=0;bottom=0;right=0;align=left;spacingLeft=2;overflow=hidden;fontSize=11;" vertex="1" parent="_XWpBwCBgqJrt7YI2MGK-230">
          <mxGeometry width="42" height="45" as="geometry">
            <mxRectangle width="42" height="45" as="alternateBounds" />
          </mxGeometry>
        </mxCell>
        <mxCell id="_XWpBwCBgqJrt7YI2MGK-232" value="generatedDate" style="shape=partialRectangle;connectable=0;fillColor=none;top=0;left=0;bottom=0;right=0;align=left;spacingLeft=2;overflow=hidden;fontSize=11;" vertex="1" parent="_XWpBwCBgqJrt7YI2MGK-230">
          <mxGeometry x="42" width="192" height="45" as="geometry">
            <mxRectangle width="192" height="45" as="alternateBounds" />
          </mxGeometry>
        </mxCell>
        <mxCell id="_XWpBwCBgqJrt7YI2MGK-233" value="" style="shape=partialRectangle;connectable=0;fillColor=none;top=0;left=0;bottom=0;right=0;align=left;spacingLeft=2;overflow=hidden;fontSize=11;" vertex="1" parent="_XWpBwCBgqJrt7YI2MGK-230">
          <mxGeometry x="234" width="22" height="45" as="geometry">
            <mxRectangle width="22" height="45" as="alternateBounds" />
          </mxGeometry>
        </mxCell>
        <mxCell id="_XWpBwCBgqJrt7YI2MGK-234" style="shape=tableRow;horizontal=0;startSize=0;swimlaneHead=0;swimlaneBody=0;fillColor=none;collapsible=0;dropTarget=0;points=[[0,0.5],[1,0.5]];portConstraint=eastwest;top=0;left=0;right=0;bottom=0;" vertex="1" parent="_XWpBwCBgqJrt7YI2MGK-209">
          <mxGeometry y="295" width="256" height="45" as="geometry" />
        </mxCell>
        <mxCell id="_XWpBwCBgqJrt7YI2MGK-235" value="string" style="shape=partialRectangle;connectable=0;fillColor=none;top=0;left=0;bottom=0;right=0;align=left;spacingLeft=2;overflow=hidden;fontSize=11;" vertex="1" parent="_XWpBwCBgqJrt7YI2MGK-234">
          <mxGeometry width="42" height="45" as="geometry">
            <mxRectangle width="42" height="45" as="alternateBounds" />
          </mxGeometry>
        </mxCell>
        <mxCell id="_XWpBwCBgqJrt7YI2MGK-236" value="reportData" style="shape=partialRectangle;connectable=0;fillColor=none;top=0;left=0;bottom=0;right=0;align=left;spacingLeft=2;overflow=hidden;fontSize=11;" vertex="1" parent="_XWpBwCBgqJrt7YI2MGK-234">
          <mxGeometry x="42" width="192" height="45" as="geometry">
            <mxRectangle width="192" height="45" as="alternateBounds" />
          </mxGeometry>
        </mxCell>
        <mxCell id="_XWpBwCBgqJrt7YI2MGK-237" value="" style="shape=partialRectangle;connectable=0;fillColor=none;top=0;left=0;bottom=0;right=0;align=left;spacingLeft=2;overflow=hidden;fontSize=11;" vertex="1" parent="_XWpBwCBgqJrt7YI2MGK-234">
          <mxGeometry x="234" width="22" height="45" as="geometry">
            <mxRectangle width="22" height="45" as="alternateBounds" />
          </mxGeometry>
        </mxCell>
        <mxCell id="_XWpBwCBgqJrt7YI2MGK-238" value="makes" style="curved=1;startArrow=ERmandOne;startSize=10;;endArrow=ERzeroToMany;endSize=10;;exitX=0.5;exitY=1;entryX=0;entryY=0.28;rounded=0;" edge="1" parent="1" source="_XWpBwCBgqJrt7YI2MGK-1" target="_XWpBwCBgqJrt7YI2MGK-30">
          <mxGeometry relative="1" as="geometry">
            <Array as="points">
              <mxPoint x="145" y="1004" />
            </Array>
          </mxGeometry>
        </mxCell>
        <mxCell id="_XWpBwCBgqJrt7YI2MGK-239" value="reserved_for" style="curved=1;startArrow=ERmandOne;startSize=10;;endArrow=ERzeroToMany;endSize=10;;exitX=0.5;exitY=1;entryX=0.5;entryY=0;rounded=0;" edge="1" parent="1" source="_XWpBwCBgqJrt7YI2MGK-67" target="_XWpBwCBgqJrt7YI2MGK-30">
          <mxGeometry relative="1" as="geometry">
            <Array as="points" />
          </mxGeometry>
        </mxCell>
        <mxCell id="_XWpBwCBgqJrt7YI2MGK-240" value="defines" style="curved=1;startArrow=ERmandOne;startSize=10;;endArrow=ERzeroToMany;endSize=10;;exitX=0.5;exitY=1;entryX=0.5;entryY=0;rounded=0;" edge="1" parent="1" source="_XWpBwCBgqJrt7YI2MGK-84" target="_XWpBwCBgqJrt7YI2MGK-67">
          <mxGeometry relative="1" as="geometry">
            <Array as="points" />
          </mxGeometry>
        </mxCell>
        <mxCell id="_XWpBwCBgqJrt7YI2MGK-241" value="has" style="curved=1;startArrow=ERmandOne;startSize=10;;endArrow=ERzeroToOne;endSize=10;;exitX=0;exitY=0.91;entryX=0.5;entryY=0;rounded=0;" edge="1" parent="1" source="_XWpBwCBgqJrt7YI2MGK-30" target="_XWpBwCBgqJrt7YI2MGK-109">
          <mxGeometry relative="1" as="geometry">
            <Array as="points">
              <mxPoint x="321" y="1534" />
            </Array>
          </mxGeometry>
        </mxCell>
        <mxCell id="_XWpBwCBgqJrt7YI2MGK-242" value="generates" style="curved=1;startArrow=ERmandOne;startSize=10;;endArrow=ERzeroToOne;endSize=10;;exitX=1;exitY=0.93;entryX=0.5;entryY=0;rounded=0;" edge="1" parent="1" source="_XWpBwCBgqJrt7YI2MGK-30" target="_XWpBwCBgqJrt7YI2MGK-138">
          <mxGeometry relative="1" as="geometry">
            <Array as="points">
              <mxPoint x="718" y="1534" />
            </Array>
          </mxGeometry>
        </mxCell>
        <mxCell id="_XWpBwCBgqJrt7YI2MGK-243" value="processes" style="curved=1;startArrow=ERmandOne;startSize=10;;endArrow=ERzeroToMany;endSize=10;;exitX=0.5;exitY=1;entryX=1;entryY=0.27;rounded=0;" edge="1" parent="1" source="_XWpBwCBgqJrt7YI2MGK-163" target="_XWpBwCBgqJrt7YI2MGK-30">
          <mxGeometry relative="1" as="geometry">
            <Array as="points">
              <mxPoint x="893" y="1004" />
            </Array>
          </mxGeometry>
        </mxCell>
        <mxCell id="_XWpBwCBgqJrt7YI2MGK-244" value="requests" style="curved=1;startArrow=ERmandOne;startSize=10;;endArrow=ERzeroToMany;endSize=10;;exitX=0.5;exitY=1;entryX=0.5;entryY=0;rounded=0;" edge="1" parent="1" source="_XWpBwCBgqJrt7YI2MGK-184" target="_XWpBwCBgqJrt7YI2MGK-209">
          <mxGeometry relative="1" as="geometry">
            <Array as="points" />
          </mxGeometry>
        </mxCell>
      </root>
    </mxGraphModel>
  </diagram>
</mxfile>
